<svg xmlns="http://www.w3.org/2000/svg" xmlns:xlink="http://www.w3.org/1999/xlink" contentStyleType="text/css" height="650px" preserveAspectRatio="xMidYMid meet" style="width: 100%; height: 100%; background: rgb(255, 255, 255); max-width: 100%; position: absolute; top: 50%; left: 50%; transform: translate(-50%, -50%);" version="1.1" viewBox="0 0 1064 650" width="1064px" zoomAndPan="magnify"><defs/><g><!--cluster client--><g id="cluster_client"><polygon fill="#FFFFFF" points="183.0474,16,193.0474,6,601.0474,6,601.0474,98.3,591.0474,108.3,183.0474,108.3,183.0474,16" style="stroke:#666666;stroke-width:1;"/><line style="stroke:#666666;stroke-width:1;" x1="591.0474" x2="601.0474" y1="16" y2="6"/><line style="stroke:#666666;stroke-width:1;" x1="183.0474" x2="591.0474" y1="16" y2="16"/><line style="stroke:#666666;stroke-width:1;" x1="591.0474" x2="591.0474" y1="16" y2="108.3"/><text fill="#000000" font-family="sans-serif" font-size="14" font-weight="bold" lengthAdjust="spacing" textLength="93.8096" x="341.1426" y="31.9951">User Device</text></g><!--cluster frontend--><g id="cluster_frontend"><polygon fill="#FFFFFF" points="336.0474,175.3,346.0474,165.3,799.0474,165.3,799.0474,273.6,789.0474,283.6,336.0474,283.6,336.0474,175.3" style="stroke:#666666;stroke-width:1;"/><line style="stroke:#666666;stroke-width:1;" x1="789.0474" x2="799.0474" y1="175.3" y2="165.3"/><line style="stroke:#666666;stroke-width:1;" x1="336.0474" x2="789.0474" y1="175.3" y2="175.3"/><line style="stroke:#666666;stroke-width:1;" x1="789.0474" x2="789.0474" y1="175.3" y2="283.6"/><text fill="#000000" font-family="sans-serif" font-size="14" font-weight="bold" lengthAdjust="spacing" textLength="129.1104" x="498.9922" y="191.2951">Frontend Server</text></g><!--cluster backend--><g id="cluster_backend"><polygon fill="#FFFFFF" points="346.0474,350.6,356.0474,340.6,743.0474,340.6,743.0474,432.89,733.0474,442.89,346.0474,442.89,346.0474,350.6" style="stroke:#666666;stroke-width:1;"/><line style="stroke:#666666;stroke-width:1;" x1="733.0474" x2="743.0474" y1="350.6" y2="340.6"/><line style="stroke:#666666;stroke-width:1;" x1="346.0474" x2="733.0474" y1="350.6" y2="350.6"/><line style="stroke:#666666;stroke-width:1;" x1="733.0474" x2="733.0474" y1="350.6" y2="442.89"/><text fill="#000000" font-family="sans-serif" font-size="14" font-weight="bold" lengthAdjust="spacing" textLength="124.0928" x="478.501" y="366.5951">Backend Server</text></g><!--cluster db--><g id="cluster_db"><path d="M524.0474,509.89 C524.0474,499.89 741.0474,499.89 741.0474,499.89 C741.0474,499.89 958.0474,499.89 958.0474,509.89 L958.0474,618.19 C958.0474,628.19 741.0474,628.19 741.0474,628.19 C741.0474,628.19 524.0474,628.19 524.0474,618.19 L524.0474,509.89 " fill="#F0F0F0" style="stroke:#666666;stroke-width:1;"/><path d="M524.0474,509.89 C524.0474,519.89 741.0474,519.89 741.0474,519.89 C741.0474,519.89 958.0474,519.89 958.0474,509.89 " fill="none" style="stroke:#666666;stroke-width:1;"/><text fill="#000000" font-family="sans-serif" font-size="14" font-weight="bold" lengthAdjust="spacing" textLength="131.3867" x="675.354" y="534.8851">Database Server</text></g><!--cluster external--><g id="cluster_external"><path d="M43.2982,525.9274 C52.7004,512.2439 62.6234,515.2417 70.9741,527.0682 C76.9383,512.9965 88.6838,509.9551 100.1501,520.5639 C111.9645,506.9272 126.9412,508.9375 135.2835,524.7114 C141.8537,511.2868 152.5869,505.093 164.3191,519.284 C174.194,502.9268 185.3229,505.8774 195.885,518.5364 C205.2599,504.2698 217.9294,501.1953 227.5486,518.2897 C234.0342,504.2017 245.3625,503.2546 255.7115,513.8886 C267.6112,499.8061 281.0937,502.5758 285.8312,520.6063 C294.0305,502.4869 308.8854,503.3644 320.1601,517.3141 C327.6297,506.1854 341.4002,506.4698 347.8835,518.4951 C357.9303,505.3704 370.0114,507.3289 376.7886,521.9067 C385.7741,505.2533 401.8685,503.556 411.3088,521.4523 C422.459,504.5759 433.6651,508.4704 443.6113,522.7026 C457.7369,510.061 468.9132,510.9803 476.0474,529.89 C478.357,530.7543 478.722,532.4282 476.7406,534.0138 C503.1621,543.2459 506.6858,557.2011 486.4364,576.9679 C504.237,599.5083 492.1009,614.0858 469.0474,620.19 C470.8543,620.1851 472.186,621.3301 471.1426,623.2664 C463.3266,639.8326 449.3498,635.8798 441.024,623.8025 C429.5612,637.8831 418.7629,638.2155 408.7967,622.1999 C401.6884,634.074 389.8282,638.8398 380.8416,624.1787 C369.181,641.0019 358.6541,639.5778 346.3068,624.9323 C339.5401,636.6277 328.0909,640.7045 319.1262,627.3139 C306.6796,643.584 293.251,639.4641 284.9807,622.9625 C277.5959,636.4859 267.8295,635.0355 259.2554,624.2195 C248.9432,639.5171 233.4909,640.7863 224.3373,622.9967 C217.4908,637.9305 204.2833,640.1472 193.5738,627.2698 C182.6615,641.5895 169.3256,637.9822 162.7667,622.7339 C155.0449,639.2824 143.1767,637.5962 132.591,625.7808 C124.4695,639.0422 108.6841,640.9962 99.938,626.5161 C90.8464,638.4551 81.513,635.92 74.2646,624.491 C57.2204,638.7934 38.5968,635.1978 31.0474,613.19 C33.2772,611.8097 35.4001,612.654 35.9497,615.2575 C13.673,603.6455 7.4926,591.1505 28.0806,571.7802 C6,549.5229 7.6987,534.4591 38.0474,522.89 C41.0934,520.9928 43.3706,522.4338 43.2982,525.9274 " fill="none" style="stroke:#181818;stroke-width:1;"/><text fill="#000000" font-family="sans-serif" font-size="14" font-weight="bold" lengthAdjust="spacing" textLength="137.3066" x="184.8941" y="540.8851">External Services</text></g><!--cluster cloud--><g id="cluster_cloud"><path d="M741.7131,19.3864 C748.7675,9.6777 756.392,8.6786 763.5832,19.2387 C770.1007,8.8423 777.6821,9.1075 784.3969,19.0366 C792.3246,9.6991 799.8615,7.7992 806.8322,20.0321 C812.1758,8.684 821.4965,6.2094 829.2925,17.6109 C837.451,6.8777 843.9677,6.9438 850.511,19.1076 C855.6099,7.9687 865.3788,7.5125 872.5074,16.9365 C879.4072,7.8285 885.7209,7.6605 892.1758,17.4008 C899.2162,8.0249 907.3113,7.0855 914.9061,16.7385 C922.3393,6.6458 931.358,7.2332 937.0739,18.5192 C942.5446,9.9454 951.424,8.072 956.7003,18.7177 C962.424,8.7571 971.4231,7.9849 977.5236,18.3312 C985.1045,8.0916 995.742,9.353 1000.9646,20.8718 C1008.1697,10.6343 1015.942,9.8014 1022.2272,21.7533 C1026.8863,12.2999 1035.344,12.7243 1040.5253,21.2211 C1049.3484,26.0429 1050.1951,33.5609 1043.0262,40.4615 C1053.8198,43.81 1055.7032,53.6037 1048.4608,61.5911 C1057.776,69.0627 1055.812,78.1466 1046.0411,83.5114 C1053.2122,89.9228 1052.274,96.8346 1043.8207,101.2951 C1037.7665,112.0404 1027.4368,113.9501 1019.1689,103.9222 C1012.7791,112.5471 1003.8828,114.0291 998.3604,103.0037 C993.1847,113.5327 985.1791,117.7762 976.2579,106.8649 C969.168,114.8045 962.8939,113.7749 958.3336,104.2662 C954.2899,114.9443 943.8675,117.722 936.2562,108.1571 C931.0989,118.2663 920.8351,118.8836 914.7852,109.1216 C908.8365,119.0054 898.692,118.908 892.2761,109.6718 C884.1956,120.1306 876.1744,119.9218 869.4773,108.2468 C862.1715,118.1966 855.3319,118.7187 849.0076,107.3064 C842.4728,116.0169 834.5387,115.8076 828.1509,107.13 C820.4302,115.7326 813.6025,116.4488 808.3049,104.7601 C800.389,113.9111 791.6425,113.8819 785.7797,102.507 C779.7141,111.5698 773.288,113.0957 765.5625,104.3964 C757.8029,115.1676 748.4615,112.6265 742.6619,102.2718 C733.2106,98.1608 730.4409,89.9629 738.1188,82.011 C726.3623,76.3383 727.0875,67.518 736.3051,60.1085 C728.2048,52.6027 730.0395,44.4149 740.4693,40.9333 C731.6054,33.2701 730.4538,25.888 741.7131,19.3864 " fill="none" style="stroke:#181818;stroke-width:1;"/><text fill="#000000" font-family="sans-serif" font-size="14" font-weight="bold" lengthAdjust="spacing" textLength="160.4258" x="810.3345" y="36.9951">Cloud Infrastructure</text></g><!--entity browser--><g id="elem_browser"><rect fill="#F1F1F1" height="46.2969" rx="2.5" ry="2.5" style="stroke:#181818;stroke-width:0.5;" width="132.832" x="198.6274" y="46"/><rect fill="#F1F1F1" height="10" style="stroke:#181818;stroke-width:0.5;" width="15" x="311.4594" y="51"/><rect fill="#F1F1F1" height="2" style="stroke:#181818;stroke-width:0.5;" width="4" x="309.4594" y="53"/><rect fill="#F1F1F1" height="2" style="stroke:#181818;stroke-width:0.5;" width="4" x="309.4594" y="57"/><text fill="#000000" font-family="sans-serif" font-size="14" lengthAdjust="spacing" textLength="92.832" x="213.6274" y="78.9951">Web Browser</text></g><g id="elem_GMN4"><path d="M366.9174,56.58 L366.9174,65.15 L331.8074,69.15 L366.9174,73.15 L366.9174,81.7128 A0,0 0 0 0 366.9174,81.7128 L585.1708,81.7128 A0,0 0 0 0 585.1708,81.7128 L585.1708,66.58 L575.1708,56.58 L366.9174,56.58 A0,0 0 0 0 366.9174,56.58 " fill="#FEFFDD" style="stroke:#181818;stroke-width:0.5;"/><path d="M575.1708,56.58 L575.1708,66.58 L585.1708,66.58 L575.1708,56.58 " fill="#FEFFDD" style="stroke:#181818;stroke-width:0.5;"/><text fill="#000000" font-family="sans-serif" font-size="13" lengthAdjust="spacing" textLength="197.2534" x="372.9174" y="73.6469">Runs the Frontend Application</text></g><!--entity nextApp--><g id="elem_nextApp"><rect fill="#F1F1F1" height="46.2969" rx="2.5" ry="2.5" style="stroke:#181818;stroke-width:0.5;" width="171.168" x="360.4674" y="213.3"/><rect fill="#F1F1F1" height="10" style="stroke:#181818;stroke-width:0.5;" width="15" x="511.6354" y="218.3"/><rect fill="#F1F1F1" height="2" style="stroke:#181818;stroke-width:0.5;" width="4" x="509.6354" y="220.3"/><rect fill="#F1F1F1" height="2" style="stroke:#181818;stroke-width:0.5;" width="4" x="509.6354" y="224.3"/><text fill="#000000" font-family="sans-serif" font-size="14" lengthAdjust="spacing" textLength="131.168" x="375.4674" y="246.2951">Next.js Application</text></g><g id="elem_GMN9"><path d="M566.5674,223.88 L566.5674,232.45 L532.1274,236.45 L566.5674,240.45 L566.5674,249.0128 A0,0 0 0 0 566.5674,249.0128 L755.52,249.0128 A0,0 0 0 0 755.52,249.0128 L755.52,233.88 L745.52,223.88 L566.5674,223.88 A0,0 0 0 0 566.5674,223.88 " fill="#FEFFDD" style="stroke:#181818;stroke-width:0.5;"/><path d="M745.52,223.88 L745.52,233.88 L755.52,233.88 L745.52,223.88 " fill="#FEFFDD" style="stroke:#181818;stroke-width:0.5;"/><text fill="#000000" font-family="sans-serif" font-size="13" lengthAdjust="spacing" textLength="167.9526" x="572.5674" y="240.9469">SSR &amp; Client Components</text></g><!--entity api--><g id="elem_api"><rect fill="#F1F1F1" height="46.2969" rx="2.5" ry="2.5" style="stroke:#181818;stroke-width:0.5;" width="168.1055" x="361.9974" y="380.6"/><rect fill="#F1F1F1" height="10" style="stroke:#181818;stroke-width:0.5;" width="15" x="510.1029" y="385.6"/><rect fill="#F1F1F1" height="2" style="stroke:#181818;stroke-width:0.5;" width="4" x="508.1029" y="387.6"/><rect fill="#F1F1F1" height="2" style="stroke:#181818;stroke-width:0.5;" width="4" x="508.1029" y="391.6"/><text fill="#000000" font-family="sans-serif" font-size="14" lengthAdjust="spacing" textLength="128.1055" x="376.9974" y="413.5951">Next.js API Routes</text></g><g id="elem_GMN14"><path d="M564.7474,391.18 L564.7474,399.74 L530.4274,403.74 L564.7474,407.74 L564.7474,416.3128 A0,0 0 0 0 564.7474,416.3128 L727.3573,416.3128 A0,0 0 0 0 727.3573,416.3128 L727.3573,401.18 L717.3573,391.18 L564.7474,391.18 A0,0 0 0 0 564.7474,391.18 " fill="#FEFFDD" style="stroke:#181818;stroke-width:0.5;"/><path d="M717.3573,391.18 L717.3573,401.18 L727.3573,401.18 L717.3573,391.18 " fill="#FEFFDD" style="stroke:#181818;stroke-width:0.5;"/><text fill="#000000" font-family="sans-serif" font-size="13" lengthAdjust="spacing" textLength="141.6099" x="570.7474" y="408.2469">Handles API Requests</text></g><!--entity mysql--><g id="elem_mysql"><rect fill="#F1F1F1" height="46.2969" rx="2.5" ry="2.5" style="stroke:#181818;stroke-width:0.5;" width="159.3213" x="548.3874" y="557.89"/><rect fill="#F1F1F1" height="10" style="stroke:#181818;stroke-width:0.5;" width="15" x="687.7087" y="562.89"/><rect fill="#F1F1F1" height="2" style="stroke:#181818;stroke-width:0.5;" width="4" x="685.7087" y="564.89"/><rect fill="#F1F1F1" height="2" style="stroke:#181818;stroke-width:0.5;" width="4" x="685.7087" y="568.89"/><text fill="#000000" font-family="sans-serif" font-size="14" lengthAdjust="spacing" textLength="119.3213" x="563.3874" y="590.8851">MySQL Database</text></g><g id="elem_GMN19"><path d="M743.1174,568.48 L743.1174,577.04 L708.1374,581.04 L743.1174,585.04 L743.1174,593.6128 A0,0 0 0 0 743.1174,593.6128 L914.9758,593.6128 A0,0 0 0 0 914.9758,593.6128 L914.9758,578.48 L904.9758,568.48 L743.1174,568.48 A0,0 0 0 0 743.1174,568.48 " fill="#FEFFDD" style="stroke:#181818;stroke-width:0.5;"/><path d="M904.9758,568.48 L904.9758,578.48 L914.9758,578.48 L904.9758,568.48 " fill="#FEFFDD" style="stroke:#181818;stroke-width:0.5;"/><text fill="#000000" font-family="sans-serif" font-size="13" lengthAdjust="spacing" textLength="150.8584" x="749.1174" y="585.5469">Stores Users &amp; Quizzes</text></g><!--entity quizApi--><g id="elem_quizApi"><rect fill="#F1F1F1" height="46.2969" rx="2.5" ry="2.5" style="stroke:#181818;stroke-width:0.5;" width="180.2803" x="66.9074" y="557.89"/><rect fill="#F1F1F1" height="10" style="stroke:#181818;stroke-width:0.5;" width="15" x="227.1877" y="562.89"/><rect fill="#F1F1F1" height="2" style="stroke:#181818;stroke-width:0.5;" width="4" x="225.1877" y="564.89"/><rect fill="#F1F1F1" height="2" style="stroke:#181818;stroke-width:0.5;" width="4" x="225.1877" y="568.89"/><text fill="#000000" font-family="sans-serif" font-size="14" lengthAdjust="spacing" textLength="140.2803" x="81.9074" y="590.8851">Quiz Generation API</text></g><g id="elem_GMN24"><path d="M282.3674,568.48 L282.3674,577.04 L247.3274,581.04 L282.3674,585.04 L282.3674,593.6128 A0,0 0 0 0 282.3674,593.6128 L459.7292,593.6128 A0,0 0 0 0 459.7292,593.6128 L459.7292,578.48 L449.7292,568.48 L282.3674,568.48 A0,0 0 0 0 282.3674,568.48 " fill="#FEFFDD" style="stroke:#181818;stroke-width:0.5;"/><path d="M449.7292,568.48 L449.7292,578.48 L459.7292,578.48 L449.7292,568.48 " fill="#FEFFDD" style="stroke:#181818;stroke-width:0.5;"/><text fill="#000000" font-family="sans-serif" font-size="13" lengthAdjust="spacing" textLength="156.3618" x="288.3674" y="585.5469">Generates Quiz Content</text></g><!--entity vercel--><g id="elem_vercel"><polygon fill="#FFFFFF" points="748.9774,56,758.9774,46,833.1239,46,833.1239,82.2969,823.1239,92.2969,748.9774,92.2969,748.9774,56" style="stroke:#666666;stroke-width:0.5;"/><line style="stroke:#666666;stroke-width:0.5;" x1="823.1239" x2="833.1239" y1="56" y2="46"/><line style="stroke:#666666;stroke-width:0.5;" x1="748.9774" x2="823.1239" y1="56" y2="56"/><line style="stroke:#666666;stroke-width:0.5;" x1="823.1239" x2="823.1239" y1="56" y2="92.2969"/><text fill="#000000" font-family="sans-serif" font-size="14" lengthAdjust="spacing" textLength="44.1465" x="763.9774" y="78.9951">Vercel</text></g><!--entity dbHost--><g id="elem_dbHost"><polygon fill="#FFFFFF" points="867.6574,56,877.6574,46,1032.4338,46,1032.4338,82.2969,1022.4338,92.2969,867.6574,92.2969,867.6574,56" style="stroke:#666666;stroke-width:0.5;"/><line style="stroke:#666666;stroke-width:0.5;" x1="1022.4338" x2="1032.4338" y1="56" y2="46"/><line style="stroke:#666666;stroke-width:0.5;" x1="867.6574" x2="1022.4338" y1="56" y2="56"/><line style="stroke:#666666;stroke-width:0.5;" x1="1022.4338" x2="1022.4338" y1="56" y2="92.2969"/><text fill="#000000" font-family="sans-serif" font-size="14" lengthAdjust="spacing" textLength="124.7764" x="882.6574" y="78.9951">Database Hosting</text></g><!--link browser to nextApp--><g id="link_browser_nextApp"><path d="M289.8374,92.79 C324.3974,124.35 382.2768,177.214 416.8368,208.774 " fill="none" id="browser-to-nextApp" style="stroke:#666666;stroke-width:1;"/><polygon fill="#666666" points="421.2674,212.82,417.3189,203.7973,417.5753,209.4483,411.9242,209.7047,421.2674,212.82" style="stroke:#666666;stroke-width:1;"/><text fill="#333333" font-family="sans-serif" font-size="13" lengthAdjust="spacing" textLength="79.625" x="340.3374" y="137.3669">HTTP/HTTPS</text></g><!--link nextApp to api--><g id="link_nextApp_api"><path d="M446.0474,260.09 C446.0474,291.65 446.0474,342.56 446.0474,374.12 " fill="none" id="nextApp-to-api" style="stroke:#666666;stroke-width:1;"/><polygon fill="#666666" points="446.0474,380.12,450.0474,371.12,446.0474,375.12,442.0474,371.12,446.0474,380.12" style="stroke:#666666;stroke-width:1;"/><text fill="#333333" font-family="sans-serif" font-size="13" lengthAdjust="spacing" textLength="110.2017" x="447.0474" y="320.6669">Internal API Calls</text></g><!--link api to mysql--><g id="link_api_mysql"><path d="M469.4674,427.3 C504.4174,460.96 565.5062,519.7974 600.3962,553.4074 " fill="none" id="api-to-mysql" style="stroke:#666666;stroke-width:1;"/><polygon fill="#666666" points="604.7174,557.57,601.0108,548.4453,601.1164,554.1011,595.4606,554.2068,604.7174,557.57" style="stroke:#666666;stroke-width:1;"/><text fill="#333333" font-family="sans-serif" font-size="13" lengthAdjust="spacing" textLength="113.2358" x="516.3974" y="471.9569">CRUD Operations</text></g><!--link api to quizApi--><g id="link_api_quizApi"><path d="M381.1474,427.38 C345.4974,441.2 301.2874,460.67 265.0474,483.89 C231.8574,505.16 202.9561,532.2138 182.3161,553.2838 " fill="none" id="api-to-quizApi" style="stroke:#666666;stroke-width:1;"/><polygon fill="#666666" points="178.1174,557.57,187.2729,553.9399,181.6163,553.9982,181.558,548.3417,178.1174,557.57" style="stroke:#666666;stroke-width:1;"/><text fill="#333333" font-family="sans-serif" font-size="13" lengthAdjust="spacing" textLength="97.792" x="308.3674" y="471.9569">HTTP Requests</text></g><!--link vercel to frontend--><g id="link_vercel_frontend"><path d="M791.0474,92.79 C791.0474,103.93 791.0474,118.2269 791.0474,133.4522 C791.0474,141.0648 791.0474,148.9096 791.0474,156.7079 C791.0474,158.6575 791.0474,160.6042 791.0474,162.5436 C791.0474,163.0285 791.0474,163.5129 791.0474,163.9967 C791.0474,164.2387 791.0474,158.4805 791.0474,158.7222 " fill="none" id="vercel-to-frontend" style="stroke:#666666;stroke-width:1;"/><polygon fill="#666666" points="791.0474,164.7222,795.0474,155.7222,791.0474,159.7222,787.0474,155.7222,791.0474,164.7222" style="stroke:#666666;stroke-width:1;"/><text fill="#333333" font-family="sans-serif" font-size="13" lengthAdjust="spacing" textLength="36.3721" x="792.0474" y="137.3669">Hosts</text></g><!--link dbHost to db--><g id="link_dbHost_db"><path d="M950.0474,92.72 C950.0474,141.675 950.0474,261.9925 950.0474,370.8188 C950.0474,398.0253 950.0474,424.5137 950.0474,448.9892 C950.0474,461.227 950.0474,472.9616 950.0474,484.0312 C950.0474,486.7986 950.0474,489.5244 950.0474,492.2061 C950.0474,493.547 950.0474,494.8768 950.0474,496.1953 C950.0474,496.8546 950.0474,491.511 950.0474,492.1646 " fill="none" id="dbHost-to-db" style="stroke:#666666;stroke-width:1;"/><polygon fill="#666666" points="950.0474,498.1646,954.0474,489.1646,950.0474,493.1646,946.0474,489.1646,950.0474,498.1646" style="stroke:#666666;stroke-width:1;"/><text fill="#333333" font-family="sans-serif" font-size="13" lengthAdjust="spacing" textLength="36.3721" x="951.0474" y="320.6669">Hosts</text></g><!--link browser to external--><!--link nextApp to db--><!--SRC=[bPJ1Rjim38RlVWeY0zPJjm83TkXXGEiiIu1kQ-DsEnGzo3QJQ5KaHvApfiNUVH8bEKwT7QO0YVt_DFMHedC2XTq9BfUPUUIoOPgjGQeQuIK3jowLhb7dIYWDRpxI2Zgh7fTQjRAEteGMUHCbRLJFQ6L_ibxscbbMClF_Evpvps4kfhNw7HCDK_H0Fj3o3v_0dK4DOzpo2ZCgTTHJHi0CL8AZj35lfTQDalx-_YUMSEbsTE4FFguCrnGcbKNGVBcoe1R9WNEOjzA0NI5CjCD1MSD5qmXUCSkL342TKw3UkdG1wfLAO8ka3T2-uPDzzylqanEYTBhJZY16no4MnHpUGXwApbDE4-3yEGpO3aL2AwFqRxBh6SnLQz4G66lu4IYdEg0faxN0-0XkMZI9Pfo69-9qmpHwvH1JNGvnlkwAcwik3w6iTsOZZi2GxljZbNOqVagCQzHDov-VCG9zVhAe9HEqhPiVarL2jJMC1WOHOL87N3uhV469cWxFrqvm6wTV7ErLT1nWVCmnKfQSXiG6m9bSQ6QiRYlRQanqEVqSUd7qlV4Ij_Dd_GDrXOBCBLtslAxfKsMi-nE9NVTtOVSv2Yh7h7XZilHMd9v-wetVzFRs-ht_Ah8a-e0m2ZCP6-Pd8MT2cCmRFY0TJpw_6yFt9ZPkx-_xuvFl1obKGI7T-tHE5PWii9FdXYUfhf0hjdEp2olkNuokZliLhskK3ouydUo-XfvPbty1]--></g></svg>