<svg xmlns="http://www.w3.org/2000/svg" xmlns:xlink="http://www.w3.org/1999/xlink" contentStyleType="text/css" height="1112px" preserveAspectRatio="xMidYMid meet" style="width: 100%; height: 100%; background: rgb(255, 255, 255); max-width: 100%; position: absolute; top: 50%; left: 50%; transform: translate(-50%, -50%);" version="1.1" viewBox="0 0 1092 1112" width="1092px" zoomAndPan="magnify"><defs/><g><line style="stroke:#181818;stroke-width:0.5;stroke-dasharray:5.0,5.0;" x1="23" x2="23" y1="81.2969" y2="1031.2813"/><line style="stroke:#181818;stroke-width:0.5;stroke-dasharray:5.0,5.0;" x1="354.3818" x2="354.3818" y1="81.2969" y2="1031.2813"/><line style="stroke:#181818;stroke-width:0.5;stroke-dasharray:5.0,5.0;" x1="633.9878" x2="633.9878" y1="81.2969" y2="1031.2813"/><line style="stroke:#181818;stroke-width:0.5;stroke-dasharray:5.0,5.0;" x1="872.3286" x2="872.3286" y1="81.2969" y2="1031.2813"/><line style="stroke:#181818;stroke-width:0.5;stroke-dasharray:5.0,5.0;" x1="1016.5737" x2="1016.5737" y1="81.2969" y2="1031.2813"/><text fill="#000000" font-family="sans-serif" font-size="14" lengthAdjust="spacing" textLength="31.9102" x="5" y="77.9951">User</text><ellipse cx="23.9551" cy="13.5" fill="#E2E2F0" rx="8" ry="8" style="stroke:#181818;stroke-width:0.5;"/><path d="M23.9551,21.5 L23.9551,48.5 M10.9551,29.5 L36.9551,29.5 M23.9551,48.5 L10.9551,63.5 M23.9551,48.5 L36.9551,63.5 " fill="none" style="stroke:#181818;stroke-width:0.5;"/><text fill="#000000" font-family="sans-serif" font-size="14" lengthAdjust="spacing" textLength="31.9102" x="5" y="1043.2764">User</text><ellipse cx="23.9551" cy="1055.0781" fill="#E2E2F0" rx="8" ry="8" style="stroke:#181818;stroke-width:0.5;"/><path d="M23.9551,1063.0781 L23.9551,1090.0781 M10.9551,1071.0781 L36.9551,1071.0781 M23.9551,1090.0781 L10.9551,1105.0781 M23.9551,1090.0781 L36.9551,1105.0781 " fill="none" style="stroke:#181818;stroke-width:0.5;"/><rect fill="#E2E2F0" height="30.2969" rx="2.5" ry="2.5" style="stroke:#181818;stroke-width:0.5;" width="140.9775" x="284.3818" y="50"/><text fill="#000000" font-family="sans-serif" font-size="14" lengthAdjust="spacing" textLength="126.9775" x="291.3818" y="69.9951">Frontend (Next.js)</text><rect fill="#E2E2F0" height="30.2969" rx="2.5" ry="2.5" style="stroke:#181818;stroke-width:0.5;" width="140.9775" x="284.3818" y="1030.2813"/><text fill="#000000" font-family="sans-serif" font-size="14" lengthAdjust="spacing" textLength="126.9775" x="291.3818" y="1050.2764">Frontend (Next.js)</text><rect fill="#E2E2F0" height="30.2969" rx="2.5" ry="2.5" style="stroke:#181818;stroke-width:0.5;" width="164.8281" x="551.9878" y="50"/><text fill="#000000" font-family="sans-serif" font-size="14" lengthAdjust="spacing" textLength="150.8281" x="558.9878" y="69.9951">Backend API (Next.js)</text><rect fill="#E2E2F0" height="30.2969" rx="2.5" ry="2.5" style="stroke:#181818;stroke-width:0.5;" width="164.8281" x="551.9878" y="1030.2813"/><text fill="#000000" font-family="sans-serif" font-size="14" lengthAdjust="spacing" textLength="150.8281" x="558.9878" y="1050.2764">Backend API (Next.js)</text><rect fill="#E2E2F0" height="30.2969" rx="2.5" ry="2.5" style="stroke:#181818;stroke-width:0.5;" width="144.2451" x="800.3286" y="50"/><text fill="#000000" font-family="sans-serif" font-size="14" lengthAdjust="spacing" textLength="130.2451" x="807.3286" y="69.9951">Database (MySQL)</text><rect fill="#E2E2F0" height="30.2969" rx="2.5" ry="2.5" style="stroke:#181818;stroke-width:0.5;" width="144.2451" x="800.3286" y="1030.2813"/><text fill="#000000" font-family="sans-serif" font-size="14" lengthAdjust="spacing" textLength="130.2451" x="807.3286" y="1050.2764">Database (MySQL)</text><rect fill="#E2E2F0" height="30.2969" rx="2.5" ry="2.5" style="stroke:#181818;stroke-width:0.5;" width="125.6104" x="954.5737" y="50"/><text fill="#000000" font-family="sans-serif" font-size="14" lengthAdjust="spacing" textLength="111.6104" x="961.5737" y="69.9951">ExternalQuizAPI</text><rect fill="#E2E2F0" height="30.2969" rx="2.5" ry="2.5" style="stroke:#181818;stroke-width:0.5;" width="125.6104" x="954.5737" y="1030.2813"/><text fill="#000000" font-family="sans-serif" font-size="14" lengthAdjust="spacing" textLength="111.6104" x="961.5737" y="1050.2764">ExternalQuizAPI</text><rect fill="#EEEEEE" height="3" style="stroke:#EEEEEE;stroke-width:1;" width="1085.1841" x="0" y="111.8633"/><line style="stroke:#000000;stroke-width:1;" x1="0" x2="1085.1841" y1="111.8633" y2="111.8633"/><line style="stroke:#000000;stroke-width:1;" x1="0" x2="1085.1841" y1="114.8633" y2="114.8633"/><rect fill="#EEEEEE" height="23.1328" style="stroke:#000000;stroke-width:2;" width="96.8052" x="494.1895" y="101.2969"/><text fill="#000000" font-family="sans-serif" font-size="13" font-weight="bold" lengthAdjust="spacing" textLength="78.2793" x="500.1895" y="117.3638">User Login</text><polygon fill="#181818" points="342.8706,151.5625,352.8706,155.5625,342.8706,159.5625,346.8706,155.5625" style="stroke:#181818;stroke-width:1;"/><line style="stroke:#181818;stroke-width:1;" x1="23.9551" x2="348.8706" y1="155.5625" y2="155.5625"/><text fill="#000000" font-family="sans-serif" font-size="13" lengthAdjust="spacing" textLength="146.8657" x="30.9551" y="150.4966">Enter login credentials</text><polygon fill="#181818" points="622.4019,180.6953,632.4019,184.6953,622.4019,188.6953,626.4019,184.6953" style="stroke:#181818;stroke-width:1;"/><line style="stroke:#181818;stroke-width:1;" x1="354.8706" x2="628.4019" y1="184.6953" y2="184.6953"/><text fill="#000000" font-family="sans-serif" font-size="13" lengthAdjust="spacing" textLength="122.3765" x="361.8706" y="179.6294">Send login request</text><polygon fill="#181818" points="860.4512,209.8281,870.4512,213.8281,860.4512,217.8281,864.4512,213.8281" style="stroke:#181818;stroke-width:1;"/><line style="stroke:#181818;stroke-width:1;" x1="634.4019" x2="866.4512" y1="213.8281" y2="213.8281"/><text fill="#000000" font-family="sans-serif" font-size="13" lengthAdjust="spacing" textLength="146.7769" x="641.4019" y="208.7622">Verify user credentials</text><polygon fill="#181818" points="645.4019,238.9609,635.4019,242.9609,645.4019,246.9609,641.4019,242.9609" style="stroke:#181818;stroke-width:1;"/><line style="stroke:#181818;stroke-width:1;stroke-dasharray:2.0,2.0;" x1="639.4019" x2="871.4512" y1="242.9609" y2="242.9609"/><text fill="#000000" font-family="sans-serif" font-size="13" lengthAdjust="spacing" textLength="109.8525" x="651.4019" y="237.895">Return user data</text><polygon fill="#181818" points="365.8706,268.0938,355.8706,272.0938,365.8706,276.0938,361.8706,272.0938" style="stroke:#181818;stroke-width:1;"/><line style="stroke:#181818;stroke-width:1;stroke-dasharray:2.0,2.0;" x1="359.8706" x2="633.4019" y1="272.0938" y2="272.0938"/><text fill="#000000" font-family="sans-serif" font-size="13" lengthAdjust="spacing" textLength="183.5361" x="371.8706" y="267.0278">Return authentication token</text><polygon fill="#181818" points="34.9551,297.2266,24.9551,301.2266,34.9551,305.2266,30.9551,301.2266" style="stroke:#181818;stroke-width:1;"/><line style="stroke:#181818;stroke-width:1;stroke-dasharray:2.0,2.0;" x1="28.9551" x2="353.8706" y1="301.2266" y2="301.2266"/><text fill="#000000" font-family="sans-serif" font-size="13" lengthAdjust="spacing" textLength="153.5371" x="40.9551" y="296.1606">Display user dashboard</text><rect fill="#EEEEEE" height="3" style="stroke:#EEEEEE;stroke-width:1;" width="1085.1841" x="0" y="329.793"/><line style="stroke:#000000;stroke-width:1;" x1="0" x2="1085.1841" y1="329.793" y2="329.793"/><line style="stroke:#000000;stroke-width:1;" x1="0" x2="1085.1841" y1="332.793" y2="332.793"/><rect fill="#EEEEEE" height="23.1328" style="stroke:#000000;stroke-width:2;" width="103.9526" x="490.6157" y="319.2266"/><text fill="#000000" font-family="sans-serif" font-size="13" font-weight="bold" lengthAdjust="spacing" textLength="85.4268" x="496.6157" y="335.2935">Create Quiz</text><polygon fill="#181818" points="342.8706,369.4922,352.8706,373.4922,342.8706,377.4922,346.8706,373.4922" style="stroke:#181818;stroke-width:1;"/><line style="stroke:#181818;stroke-width:1;" x1="23.9551" x2="348.8706" y1="373.4922" y2="373.4922"/><text fill="#000000" font-family="sans-serif" font-size="13" lengthAdjust="spacing" textLength="306.9155" x="30.9551" y="368.4263">Enter quiz preferences (prompt, difficulty, etc.)</text><polygon fill="#181818" points="622.4019,398.625,632.4019,402.625,622.4019,406.625,626.4019,402.625" style="stroke:#181818;stroke-width:1;"/><line style="stroke:#181818;stroke-width:1;" x1="354.8706" x2="628.4019" y1="402.625" y2="402.625"/><text fill="#000000" font-family="sans-serif" font-size="13" lengthAdjust="spacing" textLength="188.5" x="361.8706" y="397.5591">Submit quiz creation request</text><polygon fill="#181818" points="1005.3789,427.7578,1015.3789,431.7578,1005.3789,435.7578,1009.3789,431.7578" style="stroke:#181818;stroke-width:1;"/><line style="stroke:#181818;stroke-width:1;" x1="634.4019" x2="1011.3789" y1="431.7578" y2="431.7578"/><text fill="#000000" font-family="sans-serif" font-size="13" lengthAdjust="spacing" textLength="214.2334" x="641.4019" y="426.6919">Generate questions and answers</text><polygon fill="#181818" points="645.4019,456.8906,635.4019,460.8906,645.4019,464.8906,641.4019,460.8906" style="stroke:#181818;stroke-width:1;"/><line style="stroke:#181818;stroke-width:1;stroke-dasharray:2.0,2.0;" x1="639.4019" x2="1016.3789" y1="460.8906" y2="460.8906"/><text fill="#000000" font-family="sans-serif" font-size="13" lengthAdjust="spacing" textLength="108.4243" x="651.4019" y="455.8247">Return quiz data</text><polygon fill="#181818" points="860.4512,486.0234,870.4512,490.0234,860.4512,494.0234,864.4512,490.0234" style="stroke:#181818;stroke-width:1;"/><line style="stroke:#181818;stroke-width:1;" x1="634.4019" x2="866.4512" y1="490.0234" y2="490.0234"/><text fill="#000000" font-family="sans-serif" font-size="13" lengthAdjust="spacing" textLength="158.6279" x="641.4019" y="484.9575">Save quiz and questions</text><polygon fill="#181818" points="645.4019,515.1563,635.4019,519.1563,645.4019,523.1563,641.4019,519.1563" style="stroke:#181818;stroke-width:1;"/><line style="stroke:#181818;stroke-width:1;stroke-dasharray:2.0,2.0;" x1="639.4019" x2="871.4512" y1="519.1563" y2="519.1563"/><text fill="#000000" font-family="sans-serif" font-size="13" lengthAdjust="spacing" textLength="174.8716" x="651.4019" y="514.0903">Confirmation of quiz saved</text><polygon fill="#181818" points="365.8706,544.2891,355.8706,548.2891,365.8706,552.2891,361.8706,548.2891" style="stroke:#181818;stroke-width:1;"/><line style="stroke:#181818;stroke-width:1;stroke-dasharray:2.0,2.0;" x1="359.8706" x2="633.4019" y1="548.2891" y2="548.2891"/><text fill="#000000" font-family="sans-serif" font-size="13" lengthAdjust="spacing" textLength="154.9907" x="371.8706" y="543.2231">Return quiz ID and data</text><polygon fill="#181818" points="34.9551,573.4219,24.9551,577.4219,34.9551,581.4219,30.9551,577.4219" style="stroke:#181818;stroke-width:1;"/><line style="stroke:#181818;stroke-width:1;stroke-dasharray:2.0,2.0;" x1="28.9551" x2="353.8706" y1="577.4219" y2="577.4219"/><text fill="#000000" font-family="sans-serif" font-size="13" lengthAdjust="spacing" textLength="150.2554" x="40.9551" y="572.356">Display generated quiz</text><rect fill="#EEEEEE" height="3" style="stroke:#EEEEEE;stroke-width:1;" width="1085.1841" x="0" y="605.9883"/><line style="stroke:#000000;stroke-width:1;" x1="0" x2="1085.1841" y1="605.9883" y2="605.9883"/><line style="stroke:#000000;stroke-width:1;" x1="0" x2="1085.1841" y1="608.9883" y2="608.9883"/><rect fill="#EEEEEE" height="23.1328" style="stroke:#000000;stroke-width:2;" width="90.4829" x="497.3506" y="595.4219"/><text fill="#000000" font-family="sans-serif" font-size="13" font-weight="bold" lengthAdjust="spacing" textLength="71.957" x="503.3506" y="611.4888">Take Quiz</text><polygon fill="#181818" points="342.8706,645.6875,352.8706,649.6875,342.8706,653.6875,346.8706,649.6875" style="stroke:#181818;stroke-width:1;"/><line style="stroke:#181818;stroke-width:1;" x1="23.9551" x2="348.8706" y1="649.6875" y2="649.6875"/><text fill="#000000" font-family="sans-serif" font-size="13" lengthAdjust="spacing" textLength="146.0088" x="30.9551" y="644.6216">Answer quiz questions</text><polygon fill="#181818" points="622.4019,674.8203,632.4019,678.8203,622.4019,682.8203,626.4019,678.8203" style="stroke:#181818;stroke-width:1;"/><line style="stroke:#181818;stroke-width:1;" x1="354.8706" x2="628.4019" y1="678.8203" y2="678.8203"/><text fill="#000000" font-family="sans-serif" font-size="13" lengthAdjust="spacing" textLength="148.8398" x="361.8706" y="673.7544">Submit user responses</text><polygon fill="#181818" points="860.4512,703.9531,870.4512,707.9531,860.4512,711.9531,864.4512,707.9531" style="stroke:#181818;stroke-width:1;"/><line style="stroke:#181818;stroke-width:1;" x1="634.4019" x2="866.4512" y1="707.9531" y2="707.9531"/><text fill="#000000" font-family="sans-serif" font-size="13" lengthAdjust="spacing" textLength="134.6338" x="641.4019" y="702.8872">Save user responses</text><polygon fill="#181818" points="645.4019,733.0859,635.4019,737.0859,645.4019,741.0859,641.4019,737.0859" style="stroke:#181818;stroke-width:1;"/><line style="stroke:#181818;stroke-width:1;stroke-dasharray:2.0,2.0;" x1="639.4019" x2="871.4512" y1="737.0859" y2="737.0859"/><text fill="#000000" font-family="sans-serif" font-size="13" lengthAdjust="spacing" textLength="214.0493" x="651.4019" y="732.02">Confirmation of responses saved</text><polygon fill="#181818" points="365.8706,762.2188,355.8706,766.2188,365.8706,770.2188,361.8706,766.2188" style="stroke:#181818;stroke-width:1;"/><line style="stroke:#181818;stroke-width:1;stroke-dasharray:2.0,2.0;" x1="359.8706" x2="633.4019" y1="766.2188" y2="766.2188"/><text fill="#000000" font-family="sans-serif" font-size="13" lengthAdjust="spacing" textLength="255.5313" x="371.8706" y="761.1528">Calculate score and generate feedback</text><polygon fill="#181818" points="34.9551,791.3516,24.9551,795.3516,34.9551,799.3516,30.9551,795.3516" style="stroke:#181818;stroke-width:1;"/><line style="stroke:#181818;stroke-width:1;stroke-dasharray:2.0,2.0;" x1="28.9551" x2="353.8706" y1="795.3516" y2="795.3516"/><text fill="#000000" font-family="sans-serif" font-size="13" lengthAdjust="spacing" textLength="227.8936" x="40.9551" y="790.2856">Display feedback and explanations</text><rect fill="#EEEEEE" height="3" style="stroke:#EEEEEE;stroke-width:1;" width="1085.1841" x="0" y="823.918"/><line style="stroke:#000000;stroke-width:1;" x1="0" x2="1085.1841" y1="823.918" y2="823.918"/><line style="stroke:#000000;stroke-width:1;" x1="0" x2="1085.1841" y1="826.918" y2="826.918"/><rect fill="#EEEEEE" height="23.1328" style="stroke:#000000;stroke-width:2;" width="148.3545" x="468.4148" y="813.3516"/><text fill="#000000" font-family="sans-serif" font-size="13" font-weight="bold" lengthAdjust="spacing" textLength="129.8286" x="474.4148" y="829.4185">View Quiz History</text><polygon fill="#181818" points="342.8706,863.6172,352.8706,867.6172,342.8706,871.6172,346.8706,867.6172" style="stroke:#181818;stroke-width:1;"/><line style="stroke:#181818;stroke-width:1;" x1="23.9551" x2="348.8706" y1="867.6172" y2="867.6172"/><text fill="#000000" font-family="sans-serif" font-size="13" lengthAdjust="spacing" textLength="133.2944" x="30.9551" y="862.5513">Request quiz history</text><polygon fill="#181818" points="622.4019,892.75,632.4019,896.75,622.4019,900.75,626.4019,896.75" style="stroke:#181818;stroke-width:1;"/><line style="stroke:#181818;stroke-width:1;" x1="354.8706" x2="628.4019" y1="896.75" y2="896.75"/><text fill="#000000" font-family="sans-serif" font-size="13" lengthAdjust="spacing" textLength="172.9292" x="361.8706" y="891.6841">Fetch user's quiz attempts</text><polygon fill="#181818" points="860.4512,921.8828,870.4512,925.8828,860.4512,929.8828,864.4512,925.8828" style="stroke:#181818;stroke-width:1;"/><line style="stroke:#181818;stroke-width:1;" x1="634.4019" x2="866.4512" y1="925.8828" y2="925.8828"/><text fill="#000000" font-family="sans-serif" font-size="13" lengthAdjust="spacing" textLength="209.6758" x="641.4019" y="920.8169">Query quiz attempts and details</text><polygon fill="#181818" points="645.4019,951.0156,635.4019,955.0156,645.4019,959.0156,641.4019,955.0156" style="stroke:#181818;stroke-width:1;"/><line style="stroke:#181818;stroke-width:1;stroke-dasharray:2.0,2.0;" x1="639.4019" x2="871.4512" y1="955.0156" y2="955.0156"/><text fill="#000000" font-family="sans-serif" font-size="13" lengthAdjust="spacing" textLength="157.2695" x="651.4019" y="949.9497">Return quiz history data</text><polygon fill="#181818" points="365.8706,980.1484,355.8706,984.1484,365.8706,988.1484,361.8706,984.1484" style="stroke:#181818;stroke-width:1;"/><line style="stroke:#181818;stroke-width:1;stroke-dasharray:2.0,2.0;" x1="359.8706" x2="633.4019" y1="984.1484" y2="984.1484"/><text fill="#000000" font-family="sans-serif" font-size="13" lengthAdjust="spacing" textLength="123.8555" x="371.8706" y="979.0825">Return quiz history</text><polygon fill="#181818" points="34.9551,1009.2813,24.9551,1013.2813,34.9551,1017.2813,30.9551,1013.2813" style="stroke:#181818;stroke-width:1;"/><line style="stroke:#181818;stroke-width:1;stroke-dasharray:2.0,2.0;" x1="28.9551" x2="353.8706" y1="1013.2813" y2="1013.2813"/><text fill="#000000" font-family="sans-serif" font-size="13" lengthAdjust="spacing" textLength="127.8228" x="40.9551" y="1008.2153">Display quiz history</text><!--SRC=[VPFRJjj048Rl_HGZRXeau04YfHAEanO9K4CQxYVhCTdYx9hTSOdxzDs34sp7SBlpp-7xPmS5QmCRImRGmYQfqB0KiaB5SB4qMZ6f72QFTE2RF_RomgkMYxuiHV7gLRU_xWRATA3Ca76Bbc3oqAnNzr6KfKaocyKPxlMBL32R9Hku_kuQJM7X9Z1GXdTXA2V54akRB1TUaJh5slUE0aDlDLbEqX3CqYayav550xKltatFKhXkyv-8QwEY97S3XkosUnl3cdS-Ko1BhO2rumqJEDbc2fcqLOdDiOJTRJMQF53D3I4Jh6hvRmJhpJzNXWeof0HPc5H6xok-WbmMXHHroSqL48kRoovmlTrBZid2r_SpzT4N1rTUOUdxkhLCuGSfCdwIe7895j3PXig-ax79G3_q9hGwUHETNUDVYW5Vw5Isw-nSgqAQVHnG5r5jNLu-ud48tcMXMcXrxkzB2v47SV3tDxwEk7iRi6B9ZydE70pxCcGh5oKxP1j4l-0wYSxXvbYwBNhZhT260jqH0mgYVEkEPmJr60e9T71l2YE5ftwMz1wfVqhh3hZfqJ_5hn3nTr7GWL-w_xGBTDzikq1cSh-kwy2g9bUr5usR8KOvUZ_TRf_TqTb4VUXk-3y0]--></g></svg>