<svg xmlns="http://www.w3.org/2000/svg" xmlns:xlink="http://www.w3.org/1999/xlink" contentStyleType="text/css" height="539px" preserveAspectRatio="xMidYMid meet" style="width: 100%; height: 100%; background: rgb(255, 255, 255); max-width: 100%; position: absolute; top: 50%; left: 50%; transform: translate(-50%, -50%);" version="1.1" viewBox="0 0 923 539" width="923px" zoomAndPan="magnify"><defs/><g><!--cluster Frontend--><g id="cluster_Frontend"><path d="M86.5,6 L159.7285,6 A3.75,3.75 0 0 1 162.2285,8.5 L169.2285,28.2969 L868.5,28.2969 A2.5,2.5 0 0 1 871,30.7969 L871,116.8 A2.5,2.5 0 0 1 868.5,119.3 L86.5,119.3 A2.5,2.5 0 0 1 84,116.8 L84,8.5 A2.5,2.5 0 0 1 86.5,6 " fill="none" style="stroke:#000000;stroke-width:1.5;"/><line style="stroke:#000000;stroke-width:1.5;" x1="84" x2="169.2285" y1="28.2969" y2="28.2969"/><text fill="#000000" font-family="sans-serif" font-size="14" font-weight="bold" lengthAdjust="spacing" textLength="72.2285" x="88" y="20.9951">Frontend</text></g><!--cluster Backend--><g id="cluster_Backend"><path d="M8.5,159.3 L76.7109,159.3 A3.75,3.75 0 0 1 79.2109,161.8 L86.2109,181.5969 L907.5,181.5969 A2.5,2.5 0 0 1 910,184.0969 L910,270.1 A2.5,2.5 0 0 1 907.5,272.6 L8.5,272.6 A2.5,2.5 0 0 1 6,270.1 L6,161.8 A2.5,2.5 0 0 1 8.5,159.3 " fill="none" style="stroke:#000000;stroke-width:1.5;"/><line style="stroke:#000000;stroke-width:1.5;" x1="6" x2="86.2109" y1="181.5969" y2="181.5969"/><text fill="#000000" font-family="sans-serif" font-size="14" font-weight="bold" lengthAdjust="spacing" textLength="67.2109" x="10" y="174.2951">Backend</text></g><!--cluster Database--><g id="cluster_Database"><path d="M288.5,312.6 L364.0049,312.6 A3.75,3.75 0 0 1 366.5049,315.1 L373.5049,334.8969 L907.5,334.8969 A2.5,2.5 0 0 1 910,337.3969 L910,529.69 A2.5,2.5 0 0 1 907.5,532.19 L288.5,532.19 A2.5,2.5 0 0 1 286,529.69 L286,315.1 A2.5,2.5 0 0 1 288.5,312.6 " fill="none" style="stroke:#000000;stroke-width:1.5;"/><line style="stroke:#000000;stroke-width:1.5;" x1="286" x2="373.5049" y1="334.8969" y2="334.8969"/><text fill="#000000" font-family="sans-serif" font-size="14" font-weight="bold" lengthAdjust="spacing" textLength="74.5049" x="290" y="327.5951">Database</text></g><!--entity Login--><g id="elem_Login"><rect fill="#F1F1F1" height="46.2969" rx="2.5" ry="2.5" style="stroke:#181818;stroke-width:0.5;" width="78.0146" x="107.99" y="49"/><rect fill="#F1F1F1" height="10" style="stroke:#181818;stroke-width:0.5;" width="15" x="166.0046" y="54"/><rect fill="#F1F1F1" height="2" style="stroke:#181818;stroke-width:0.5;" width="4" x="164.0046" y="56"/><rect fill="#F1F1F1" height="2" style="stroke:#181818;stroke-width:0.5;" width="4" x="164.0046" y="60"/><text fill="#000000" font-family="sans-serif" font-size="14" lengthAdjust="spacing" textLength="38.0146" x="122.99" y="81.9951">Login</text></g><!--entity Dashboard--><g id="elem_Dashboard"><rect fill="#F1F1F1" height="46.2969" rx="2.5" ry="2.5" style="stroke:#181818;stroke-width:0.5;" width="116.2002" x="220.9" y="49"/><rect fill="#F1F1F1" height="10" style="stroke:#181818;stroke-width:0.5;" width="15" x="317.1002" y="54"/><rect fill="#F1F1F1" height="2" style="stroke:#181818;stroke-width:0.5;" width="4" x="315.1002" y="56"/><rect fill="#F1F1F1" height="2" style="stroke:#181818;stroke-width:0.5;" width="4" x="315.1002" y="60"/><text fill="#000000" font-family="sans-serif" font-size="14" lengthAdjust="spacing" textLength="76.2002" x="235.9" y="81.9951">Dashboard</text></g><!--entity Quiz Creation--><g id="elem_Quiz Creation"><rect fill="#F1F1F1" height="46.2969" rx="2.5" ry="2.5" style="stroke:#181818;stroke-width:0.5;" width="135.1221" x="372.44" y="49"/><rect fill="#F1F1F1" height="10" style="stroke:#181818;stroke-width:0.5;" width="15" x="487.5621" y="54"/><rect fill="#F1F1F1" height="2" style="stroke:#181818;stroke-width:0.5;" width="4" x="485.5621" y="56"/><rect fill="#F1F1F1" height="2" style="stroke:#181818;stroke-width:0.5;" width="4" x="485.5621" y="60"/><text fill="#000000" font-family="sans-serif" font-size="14" lengthAdjust="spacing" textLength="95.1221" x="387.44" y="81.9951">Quiz Creation</text></g><!--entity Quiz Taking--><g id="elem_Quiz Taking"><rect fill="#F1F1F1" height="46.2969" rx="2.5" ry="2.5" style="stroke:#181818;stroke-width:0.5;" width="122.4688" x="542.77" y="49"/><rect fill="#F1F1F1" height="10" style="stroke:#181818;stroke-width:0.5;" width="15" x="645.2388" y="54"/><rect fill="#F1F1F1" height="2" style="stroke:#181818;stroke-width:0.5;" width="4" x="643.2388" y="56"/><rect fill="#F1F1F1" height="2" style="stroke:#181818;stroke-width:0.5;" width="4" x="643.2388" y="60"/><text fill="#000000" font-family="sans-serif" font-size="14" lengthAdjust="spacing" textLength="82.4688" x="557.77" y="81.9951">Quiz Taking</text></g><!--entity History View--><g id="elem_History View"><rect fill="#F1F1F1" height="46.2969" rx="2.5" ry="2.5" style="stroke:#181818;stroke-width:0.5;" width="127.7871" x="700.11" y="49"/><rect fill="#F1F1F1" height="10" style="stroke:#181818;stroke-width:0.5;" width="15" x="807.8971" y="54"/><rect fill="#F1F1F1" height="2" style="stroke:#181818;stroke-width:0.5;" width="4" x="805.8971" y="56"/><rect fill="#F1F1F1" height="2" style="stroke:#181818;stroke-width:0.5;" width="4" x="805.8971" y="60"/><text fill="#000000" font-family="sans-serif" font-size="14" lengthAdjust="spacing" textLength="87.7871" x="715.11" y="81.9951">History View</text></g><!--entity Authentication Service--><g id="elem_Authentication Service"><rect fill="#F1F1F1" height="46.2969" rx="2.5" ry="2.5" style="stroke:#181818;stroke-width:0.5;" width="198.9629" x="29.52" y="202.3"/><rect fill="#F1F1F1" height="10" style="stroke:#181818;stroke-width:0.5;" width="15" x="208.4829" y="207.3"/><rect fill="#F1F1F1" height="2" style="stroke:#181818;stroke-width:0.5;" width="4" x="206.4829" y="209.3"/><rect fill="#F1F1F1" height="2" style="stroke:#181818;stroke-width:0.5;" width="4" x="206.4829" y="213.3"/><text fill="#000000" font-family="sans-serif" font-size="14" lengthAdjust="spacing" textLength="158.9629" x="44.52" y="235.2951">Authentication Service</text></g><!--entity Quiz Management Service--><g id="elem_Quiz Management Service"><rect fill="#F1F1F1" height="46.2969" rx="2.5" ry="2.5" style="stroke:#181818;stroke-width:0.5;" width="223.9961" x="263" y="202.3"/><rect fill="#F1F1F1" height="10" style="stroke:#181818;stroke-width:0.5;" width="15" x="466.9961" y="207.3"/><rect fill="#F1F1F1" height="2" style="stroke:#181818;stroke-width:0.5;" width="4" x="464.9961" y="209.3"/><rect fill="#F1F1F1" height="2" style="stroke:#181818;stroke-width:0.5;" width="4" x="464.9961" y="213.3"/><text fill="#000000" font-family="sans-serif" font-size="14" lengthAdjust="spacing" textLength="183.9961" x="278" y="235.2951">Quiz Management Service</text></g><!--entity History Service--><g id="elem_History Service"><rect fill="#F1F1F1" height="46.2969" rx="2.5" ry="2.5" style="stroke:#181818;stroke-width:0.5;" width="145.998" x="721" y="202.3"/><rect fill="#F1F1F1" height="10" style="stroke:#181818;stroke-width:0.5;" width="15" x="846.998" y="207.3"/><rect fill="#F1F1F1" height="2" style="stroke:#181818;stroke-width:0.5;" width="4" x="844.998" y="209.3"/><rect fill="#F1F1F1" height="2" style="stroke:#181818;stroke-width:0.5;" width="4" x="844.998" y="213.3"/><text fill="#000000" font-family="sans-serif" font-size="14" lengthAdjust="spacing" textLength="105.998" x="736" y="235.2951">History Service</text></g><!--entity Feedback Service--><g id="elem_Feedback Service"><rect fill="#F1F1F1" height="46.2969" rx="2.5" ry="2.5" style="stroke:#181818;stroke-width:0.5;" width="163.6279" x="522.19" y="202.3"/><rect fill="#F1F1F1" height="10" style="stroke:#181818;stroke-width:0.5;" width="15" x="665.8179" y="207.3"/><rect fill="#F1F1F1" height="2" style="stroke:#181818;stroke-width:0.5;" width="4" x="663.8179" y="209.3"/><rect fill="#F1F1F1" height="2" style="stroke:#181818;stroke-width:0.5;" width="4" x="663.8179" y="213.3"/><text fill="#000000" font-family="sans-serif" font-size="14" lengthAdjust="spacing" textLength="123.6279" x="537.19" y="235.2951">Feedback Service</text></g><!--entity Users Table--><g id="elem_Users Table"><rect fill="#F1F1F1" height="46.2969" rx="2.5" ry="2.5" style="stroke:#181818;stroke-width:0.5;" width="122.1748" x="316.91" y="355.6"/><rect fill="#F1F1F1" height="10" style="stroke:#181818;stroke-width:0.5;" width="15" x="419.0848" y="360.6"/><rect fill="#F1F1F1" height="2" style="stroke:#181818;stroke-width:0.5;" width="4" x="417.0848" y="362.6"/><rect fill="#F1F1F1" height="2" style="stroke:#181818;stroke-width:0.5;" width="4" x="417.0848" y="366.6"/><text fill="#000000" font-family="sans-serif" font-size="14" lengthAdjust="spacing" textLength="82.1748" x="331.91" y="388.5951">Users Table</text></g><!--entity Quizzes Table--><g id="elem_Quizzes Table"><rect fill="#F1F1F1" height="46.2969" rx="2.5" ry="2.5" style="stroke:#181818;stroke-width:0.5;" width="137.3574" x="474.32" y="355.6"/><rect fill="#F1F1F1" height="10" style="stroke:#181818;stroke-width:0.5;" width="15" x="591.6774" y="360.6"/><rect fill="#F1F1F1" height="2" style="stroke:#181818;stroke-width:0.5;" width="4" x="589.6774" y="362.6"/><rect fill="#F1F1F1" height="2" style="stroke:#181818;stroke-width:0.5;" width="4" x="589.6774" y="366.6"/><text fill="#000000" font-family="sans-serif" font-size="14" lengthAdjust="spacing" textLength="97.3574" x="489.32" y="388.5951">Quizzes Table</text></g><!--entity Questions Table--><g id="elem_Questions Table"><rect fill="#F1F1F1" height="46.2969" rx="2.5" ry="2.5" style="stroke:#181818;stroke-width:0.5;" width="152.8818" x="646.56" y="355.6"/><rect fill="#F1F1F1" height="10" style="stroke:#181818;stroke-width:0.5;" width="15" x="779.4418" y="360.6"/><rect fill="#F1F1F1" height="2" style="stroke:#181818;stroke-width:0.5;" width="4" x="777.4418" y="362.6"/><rect fill="#F1F1F1" height="2" style="stroke:#181818;stroke-width:0.5;" width="4" x="777.4418" y="366.6"/><text fill="#000000" font-family="sans-serif" font-size="14" lengthAdjust="spacing" textLength="112.8818" x="661.56" y="388.5951">Questions Table</text></g><!--entity Options Table--><g id="elem_Options Table"><rect fill="#F1F1F1" height="46.2969" rx="2.5" ry="2.5" style="stroke:#181818;stroke-width:0.5;" width="136.9883" x="309.51" y="461.89"/><rect fill="#F1F1F1" height="10" style="stroke:#181818;stroke-width:0.5;" width="15" x="426.4983" y="466.89"/><rect fill="#F1F1F1" height="2" style="stroke:#181818;stroke-width:0.5;" width="4" x="424.4983" y="468.89"/><rect fill="#F1F1F1" height="2" style="stroke:#181818;stroke-width:0.5;" width="4" x="424.4983" y="472.89"/><text fill="#000000" font-family="sans-serif" font-size="14" lengthAdjust="spacing" textLength="96.9883" x="324.51" y="494.8851">Options Table</text></g><!--entity Quiz Attempts Table--><g id="elem_Quiz Attempts Table"><rect fill="#F1F1F1" height="46.2969" rx="2.5" ry="2.5" style="stroke:#181818;stroke-width:0.5;" width="183.0283" x="481.49" y="461.89"/><rect fill="#F1F1F1" height="10" style="stroke:#181818;stroke-width:0.5;" width="15" x="644.5183" y="466.89"/><rect fill="#F1F1F1" height="2" style="stroke:#181818;stroke-width:0.5;" width="4" x="642.5183" y="468.89"/><rect fill="#F1F1F1" height="2" style="stroke:#181818;stroke-width:0.5;" width="4" x="642.5183" y="472.89"/><text fill="#000000" font-family="sans-serif" font-size="14" lengthAdjust="spacing" textLength="143.0283" x="496.49" y="494.8851">Quiz Attempts Table</text></g><!--entity User Answers Table--><g id="elem_User Answers Table"><rect fill="#F1F1F1" height="46.2969" rx="2.5" ry="2.5" style="stroke:#181818;stroke-width:0.5;" width="178.1885" x="699.91" y="461.89"/><rect fill="#F1F1F1" height="10" style="stroke:#181818;stroke-width:0.5;" width="15" x="858.0985" y="466.89"/><rect fill="#F1F1F1" height="2" style="stroke:#181818;stroke-width:0.5;" width="4" x="856.0985" y="468.89"/><rect fill="#F1F1F1" height="2" style="stroke:#181818;stroke-width:0.5;" width="4" x="856.0985" y="472.89"/><text fill="#000000" font-family="sans-serif" font-size="14" lengthAdjust="spacing" textLength="138.1885" x="714.91" y="494.8851">User Answers Table</text></g><!--link Frontend to Backend--><g id="link_Frontend_Backend"><path d="M871.1432,72.19 C871.3765,72.19 871.6131,72.19 871.8528,72.19 C875.6881,72.19 880.3163,72.19 884.7825,72.19 C893.715,72.19 902,72.19 902,72.19 C902,72.19 902,107.57 902,144.3313 C902,148.9264 902,153.5431 902,158.1151 C902,158.4008 902,174.9833 902,175.2686 " fill="none" id="Frontend-to-Backend" style="stroke:#181818;stroke-width:1;"/><polygon fill="#181818" points="902,181.2686,906,172.2686,902,176.2686,898,172.2686,902,181.2686" style="stroke:#181818;stroke-width:1;"/><text fill="#000000" font-family="sans-serif" font-size="13" lengthAdjust="spacing" textLength="84.8618" x="817" y="125.3869">API Requests</text></g><!--link Backend to Database--><g id="link_Backend_Database"><path d="M902,272.8673 C902,273.1271 902,273.3875 902,273.6484 C902,274.6921 902,275.7439 902,276.803 C902,285.2757 902,294.2128 902,303.1313 C902,305.3609 902,307.5893 902,309.809 C902,310.364 902,310.9183 902,311.4721 C902,311.7489 902,328.3225 902,328.599 " fill="none" id="Backend-to-Database" style="stroke:#181818;stroke-width:1;"/><polygon fill="#181818" points="902,334.599,906,325.599,902,329.599,898,325.599,902,334.599" style="stroke:#181818;stroke-width:1;"/><text fill="#000000" font-family="sans-serif" font-size="13" lengthAdjust="spacing" textLength="113.2358" x="788" y="298.2969">CRUD Operations</text></g><!--link Login to Authentication Service--><g id="link_Login_Authentication Service"><path d="M147,95.77 C147,124.57 147,166.98 147,195.8 " fill="none" id="Login-to-Authentication Service" style="stroke:#181818;stroke-width:1;"/><polygon fill="#181818" points="147,201.8,151,192.8,147,196.8,143,192.8,147,201.8" style="stroke:#181818;stroke-width:1;"/><text fill="#000000" font-family="sans-serif" font-size="13" lengthAdjust="spacing" textLength="92.8218" x="54" y="144.8569">Login Request</text></g><!--link Dashboard to Quiz Management Service--><g id="link_Dashboard_Quiz Management Service"><path d="M300.05,95.77 C300.05,124.57 300.05,166.98 300.05,195.8 " fill="none" id="Dashboard-to-Quiz Management Service" style="stroke:#181818;stroke-width:1;"/><polygon fill="#181818" points="300.05,201.8,304.05,192.8,300.05,196.8,296.05,192.8,300.05,201.8" style="stroke:#181818;stroke-width:1;"/><text fill="#000000" font-family="sans-serif" font-size="13" lengthAdjust="spacing" textLength="124.3569" x="175.05" y="144.8569">Fetch User Quizzes</text></g><!--link Quiz Creation to Quiz Management Service--><g id="link_Quiz Creation_Quiz Management Service"><path d="M429.72,95.77 C429.72,124.57 429.72,166.98 429.72,195.8 " fill="none" id="Quiz Creation-to-Quiz Management Service" style="stroke:#181818;stroke-width:1;"/><polygon fill="#181818" points="429.72,201.8,433.72,192.8,429.72,196.8,425.72,192.8,429.72,201.8" style="stroke:#181818;stroke-width:1;"/><text fill="#000000" font-family="sans-serif" font-size="13" lengthAdjust="spacing" textLength="109.0083" x="319.72" y="144.8569">Create New Quiz</text></g><!--link Quiz Taking to Quiz Management Service--><g id="link_Quiz Taking_Quiz Management Service"><path d="M542.59,72.19 C527.15,72.19 514.87,72.19 514.87,72.19 C514.87,72.19 514.87,225.19 514.87,225.19 C514.87,225.19 509.5,225.19 493.24,225.19 " fill="none" id="Quiz Taking-to-Quiz Management Service" style="stroke:#181818;stroke-width:1;"/><polygon fill="#181818" points="487.24,225.19,496.24,229.19,492.24,225.19,496.24,221.19,487.24,225.19" style="stroke:#181818;stroke-width:1;"/><text fill="#000000" font-family="sans-serif" font-size="13" lengthAdjust="spacing" textLength="104.9014" x="515.87" y="144.7169">Submit Answers</text></g><!--link Quiz Taking to Feedback Service--><g id="link_Quiz Taking_Feedback Service"><path d="M604,95.77 C604,124.57 604,166.98 604,195.8 " fill="none" id="Quiz Taking-to-Feedback Service" style="stroke:#181818;stroke-width:1;"/><polygon fill="#181818" points="604,201.8,608,192.8,604,196.8,600,192.8,604,201.8" style="stroke:#181818;stroke-width:1;"/><text fill="#000000" font-family="sans-serif" font-size="13" lengthAdjust="spacing" textLength="89.9209" x="514" y="161.8569">Get Feedback</text></g><!--link History View to History Service--><g id="link_History View_History Service"><path d="M774.45,95.77 C774.45,124.57 774.45,166.98 774.45,195.8 " fill="none" id="History View-to-History Service" style="stroke:#181818;stroke-width:1;"/><polygon fill="#181818" points="774.45,201.8,778.45,192.8,774.45,196.8,770.45,192.8,774.45,201.8" style="stroke:#181818;stroke-width:1;"/><text fill="#000000" font-family="sans-serif" font-size="13" lengthAdjust="spacing" textLength="121.5132" x="652.45" y="144.8569">Fetch History Data</text></g><!--SRC=[XLB1JiCm3BtdAwpTzmCSaCgg0X8ms1WNj4FQMMsqDIc9IxKX_fqqRKRQRLfFwREVd_riinMoufgNi1CIQLyXA4s5OenLFDlo766IQ2K9vMO2Fmpiz_caSY7NtJlcfaWLrvl-_wqM1vXfv2IK3B5tRgNo7daGXfJUmuV0Pir-0x4x-mYrefeAb2GoLn2MgBz5Xc7XPoujixH9ewWN6Q89uYQr8lzmA1zpuYatUDHV6TJ6Df_kGj43ZZ4qRNz3T5wTOgxbY0ZBYeQHLWaYQPf0qBRctOVfz1PwT-06ejT7ME1NgskOXziKFu7DcIrMCSmhrCuxmrY_EPTtoLdBSrc-EWjMt14lkMwP2L9MW9kajucDBk9g2PU9y8ADAy46rtELlQpJKf2tyHpvPF-MTOy47cV3u-n8urCwZke3hUj_]--></g></svg>