<svg xmlns="http://www.w3.org/2000/svg" xmlns:xlink="http://www.w3.org/1999/xlink" contentStyleType="text/css" height="1608px" preserveAspectRatio="xMidYMid meet" style="width: 100%; height: 100%; background: rgb(255, 255, 255); max-width: 100%; position: absolute; top: 50%; left: 50%; transform: translate(-50%, -50%);" version="1.1" viewBox="0 0 479 1608" width="479px" zoomAndPan="magnify"><defs/><g><ellipse cx="202.4631" cy="20" fill="#222222" rx="10" ry="10" style="stroke:#222222;stroke-width:1;"/><rect fill="#F1F1F1" height="33.9688" rx="12.5" ry="12.5" style="stroke:#181818;stroke-width:0.5;" width="180.8809" x="112.0227" y="50"/><text fill="#000000" font-family="sans-serif" font-size="12" lengthAdjust="spacing" textLength="160.8809" x="122.0227" y="71.1387">User opens the application</text><polygon fill="#F1F1F1" points="130.3105,103.9688,274.6157,103.9688,286.6157,115.9688,274.6157,127.9688,130.3105,127.9688,118.3105,115.9688,130.3105,103.9688" style="stroke:#181818;stroke-width:0.5;"/><text fill="#000000" font-family="sans-serif" font-size="11" lengthAdjust="spacing" textLength="144.3052" x="130.3105" y="119.7769">Is the user authenticated?</text><text fill="#000000" font-family="sans-serif" font-size="11" lengthAdjust="spacing" textLength="19.0083" x="99.3022" y="113.3745">yes</text><text fill="#000000" font-family="sans-serif" font-size="11" lengthAdjust="spacing" textLength="13.7017" x="286.6157" y="113.3745">no</text><rect fill="#F1F1F1" height="33.9688" rx="12.5" ry="12.5" style="stroke:#181818;stroke-width:0.5;" width="153.6582" x="11" y="137.9688"/><text fill="#000000" font-family="sans-serif" font-size="12" lengthAdjust="spacing" textLength="133.6582" x="21" y="159.1074">Redirect to dashboard</text><rect fill="#F1F1F1" height="33.9688" rx="12.5" ry="12.5" style="stroke:#181818;stroke-width:0.5;" width="191.832" x="221.1812" y="137.9688"/><text fill="#000000" font-family="sans-serif" font-size="12" lengthAdjust="spacing" textLength="171.832" x="231.1812" y="159.1074">Display login/register screen</text><rect fill="#F1F1F1" height="33.9688" rx="12.5" ry="12.5" style="stroke:#181818;stroke-width:0.5;" width="167.8848" x="233.1548" y="240.3398"/><text fill="#000000" font-family="sans-serif" font-size="12" lengthAdjust="spacing" textLength="147.8848" x="243.1548" y="261.4785">Submit registration form</text><rect fill="#F1F1F1" height="33.9688" rx="12.5" ry="12.5" style="stroke:#181818;stroke-width:0.5;" width="209.1055" x="212.5444" y="309.3086"/><text fill="#000000" font-family="sans-serif" font-size="12" lengthAdjust="spacing" textLength="189.1055" x="222.5444" y="330.4473">Save user data to the database</text><polygon fill="#F1F1F1" points="252.73,191.9375,381.4644,191.9375,393.4644,203.9375,381.4644,215.9375,252.73,215.9375,240.73,203.9375,252.73,191.9375" style="stroke:#181818;stroke-width:0.5;"/><text fill="#000000" font-family="sans-serif" font-size="11" lengthAdjust="spacing" textLength="19.0083" x="321.0972" y="226.1479">yes</text><text fill="#000000" font-family="sans-serif" font-size="11" lengthAdjust="spacing" textLength="128.7344" x="252.73" y="207.7456">Does the user register?</text><polygon fill="#F1F1F1" points="317.0972,363.2773,329.0972,375.2773,317.0972,387.2773,305.0972,375.2773,317.0972,363.2773" style="stroke:#181818;stroke-width:0.5;"/><rect fill="#F1F1F1" height="33.9688" rx="12.5" ry="12.5" style="stroke:#181818;stroke-width:0.5;" width="127.6191" x="253.2876" y="407.2773"/><text fill="#000000" font-family="sans-serif" font-size="12" lengthAdjust="spacing" textLength="107.6191" x="263.2876" y="428.416">Submit login form</text><rect fill="#F1F1F1" height="33.9688" rx="12.5" ry="12.5" style="stroke:#181818;stroke-width:0.5;" width="155.4863" x="239.354" y="461.2461"/><text fill="#000000" font-family="sans-serif" font-size="12" lengthAdjust="spacing" textLength="135.4863" x="249.354" y="482.3848">Verify user credentials</text><polygon fill="#F1F1F1" points="267.9624,515.2148,366.2319,515.2148,378.2319,527.2148,366.2319,539.2148,267.9624,539.2148,255.9624,527.2148,267.9624,515.2148" style="stroke:#181818;stroke-width:0.5;"/><text fill="#000000" font-family="sans-serif" font-size="11" lengthAdjust="spacing" textLength="98.2695" x="267.9624" y="531.0229">Credentials valid?</text><text fill="#000000" font-family="sans-serif" font-size="11" lengthAdjust="spacing" textLength="19.0083" x="236.9541" y="524.6206">yes</text><text fill="#000000" font-family="sans-serif" font-size="11" lengthAdjust="spacing" textLength="13.7017" x="378.2319" y="524.6206">no</text><rect fill="#F1F1F1" height="33.9688" rx="12.5" ry="12.5" style="stroke:#181818;stroke-width:0.5;" width="98.1465" x="194.6582" y="549.2148"/><text fill="#000000" font-family="sans-serif" font-size="12" lengthAdjust="spacing" textLength="78.1465" x="204.6582" y="570.3535">Grant access</text><rect fill="#F1F1F1" height="33.9688" rx="12.5" ry="12.5" style="stroke:#181818;stroke-width:0.5;" width="155.3164" x="312.8047" y="549.2148"/><text fill="#000000" font-family="sans-serif" font-size="12" lengthAdjust="spacing" textLength="135.3164" x="322.8047" y="570.3535">Display error message</text><ellipse cx="390.4629" cy="614.1836" fill="none" rx="11" ry="11" style="stroke:#222222;stroke-width:1;"/><ellipse cx="390.4629" cy="614.1836" fill="#222222" rx="6" ry="6" style="stroke:#222222;stroke-width:1;"/><polygon fill="#F1F1F1" points="202.4631,635.1836,214.4631,647.1836,202.4631,659.1836,190.4631,647.1836,202.4631,635.1836" style="stroke:#181818;stroke-width:0.5;"/><rect fill="#F1F1F1" height="33.9688" rx="12.5" ry="12.5" style="stroke:#181818;stroke-width:0.5;" width="196.25" x="104.3381" y="679.1836"/><text fill="#000000" font-family="sans-serif" font-size="12" lengthAdjust="spacing" textLength="176.25" x="114.3381" y="700.3223">User accesses the dashboard</text><rect fill="#F1F1F1" height="33.9688" rx="12.5" ry="12.5" style="stroke:#181818;stroke-width:0.5;" width="178.5605" x="113.1829" y="733.1523"/><text fill="#000000" font-family="sans-serif" font-size="12" lengthAdjust="spacing" textLength="158.5605" x="123.1829" y="754.291">User selects "Create Quiz"</text><rect fill="#F1F1F1" height="33.9688" rx="12.5" ry="12.5" style="stroke:#181818;stroke-width:0.5;" width="311.8555" x="46.5354" y="787.1211"/><text fill="#000000" font-family="sans-serif" font-size="12" lengthAdjust="spacing" textLength="291.8555" x="56.5354" y="808.2598">User enters preferences (prompt, difficulty, etc.)</text><rect fill="#F1F1F1" height="33.9688" rx="12.5" ry="12.5" style="stroke:#181818;stroke-width:0.5;" width="194" x="105.4631" y="841.0898"/><text fill="#000000" font-family="sans-serif" font-size="12" lengthAdjust="spacing" textLength="174" x="115.4631" y="862.2285">Submit quiz creation request</text><rect fill="#F1F1F1" height="33.9688" rx="12.5" ry="12.5" style="stroke:#181818;stroke-width:0.5;" width="198.0781" x="103.4241" y="895.0586"/><text fill="#000000" font-family="sans-serif" font-size="12" lengthAdjust="spacing" textLength="178.0781" x="113.4241" y="916.1973">Backend generates questions</text><rect fill="#F1F1F1" height="33.9688" rx="12.5" ry="12.5" style="stroke:#181818;stroke-width:0.5;" width="265.2441" x="69.8411" y="949.0273"/><text fill="#000000" font-family="sans-serif" font-size="12" lengthAdjust="spacing" textLength="245.2441" x="79.8411" y="970.166">Save quiz and questions to the database</text><rect fill="#F1F1F1" height="33.9688" rx="12.5" ry="12.5" style="stroke:#181818;stroke-width:0.5;" width="158.6973" x="123.1145" y="1002.9961"/><text fill="#000000" font-family="sans-serif" font-size="12" lengthAdjust="spacing" textLength="138.6973" x="133.1145" y="1024.1348">Display generated quiz</text><rect fill="#F1F1F1" height="33.9688" rx="12.5" ry="12.5" style="stroke:#181818;stroke-width:0.5;" width="156.418" x="124.2542" y="1112.6753"/><text fill="#000000" font-family="sans-serif" font-size="12" lengthAdjust="spacing" textLength="136.418" x="134.2542" y="1133.814">User answers question</text><rect fill="#F1F1F1" height="33.9688" rx="12.5" ry="12.5" style="stroke:#181818;stroke-width:0.5;" width="138.0254" x="133.4504" y="1175.7417"/><text fill="#000000" font-family="sans-serif" font-size="12" lengthAdjust="spacing" textLength="118.0254" x="143.4504" y="1196.8804">Save user response</text><polygon fill="#F1F1F1" points="129.2256,1056.9648,275.7007,1056.9648,287.7007,1068.9648,275.7007,1080.9648,129.2256,1080.9648,117.2256,1068.9648,129.2256,1056.9648" style="stroke:#181818;stroke-width:0.5;"/><text fill="#000000" font-family="sans-serif" font-size="11" lengthAdjust="spacing" textLength="19.0083" x="206.4631" y="1091.1753">yes</text><text fill="#000000" font-family="sans-serif" font-size="11" lengthAdjust="spacing" textLength="146.4751" x="129.2256" y="1072.7729">Are there more questions?</text><text fill="#000000" font-family="sans-serif" font-size="11" lengthAdjust="spacing" textLength="13.7017" x="103.5239" y="1066.3706">no</text><rect fill="#F1F1F1" height="33.9688" rx="12.5" ry="12.5" style="stroke:#181818;stroke-width:0.5;" width="197.6973" x="103.6145" y="1251.7104"/><text fill="#000000" font-family="sans-serif" font-size="12" lengthAdjust="spacing" textLength="177.6973" x="113.6145" y="1272.8491">Calculate score and feedback</text><rect fill="#F1F1F1" height="33.9688" rx="12.5" ry="12.5" style="stroke:#181818;stroke-width:0.5;" width="228.916" x="88.0051" y="1305.6792"/><text fill="#000000" font-family="sans-serif" font-size="12" lengthAdjust="spacing" textLength="208.916" x="98.0051" y="1326.8179">Save quiz attempt to the database</text><rect fill="#F1F1F1" height="33.9688" rx="12.5" ry="12.5" style="stroke:#181818;stroke-width:0.5;" width="230.3633" x="87.2815" y="1359.6479"/><text fill="#000000" font-family="sans-serif" font-size="12" lengthAdjust="spacing" textLength="210.3633" x="97.2815" y="1380.7866">Display feedback and explanations</text><rect fill="#F1F1F1" height="33.9688" rx="12.5" ry="12.5" style="stroke:#181818;stroke-width:0.5;" width="158.8086" x="123.0588" y="1413.6167"/><text fill="#000000" font-family="sans-serif" font-size="12" lengthAdjust="spacing" textLength="138.8086" x="133.0588" y="1434.7554">User views quiz history</text><rect fill="#F1F1F1" height="33.9688" rx="12.5" ry="12.5" style="stroke:#181818;stroke-width:0.5;" width="255.0488" x="74.9387" y="1467.5854"/><text fill="#000000" font-family="sans-serif" font-size="12" lengthAdjust="spacing" textLength="235.0488" x="84.9387" y="1488.7241">Fetch quiz attempts from the database</text><rect fill="#F1F1F1" height="33.9688" rx="12.5" ry="12.5" style="stroke:#181818;stroke-width:0.5;" width="137.9902" x="133.468" y="1521.5542"/><text fill="#000000" font-family="sans-serif" font-size="12" lengthAdjust="spacing" textLength="117.9902" x="143.468" y="1542.6929">Display quiz history</text><ellipse cx="202.4631" cy="1586.5229" fill="none" rx="11" ry="11" style="stroke:#222222;stroke-width:1;"/><ellipse cx="202.4631" cy="1586.5229" fill="#222222" rx="6" ry="6" style="stroke:#222222;stroke-width:1;"/><line style="stroke:#181818;stroke-width:1;" x1="202.4631" x2="202.4631" y1="30" y2="50"/><polygon fill="#181818" points="198.4631,40,202.4631,50,206.4631,40,202.4631,44" style="stroke:#181818;stroke-width:1;"/><line style="stroke:#181818;stroke-width:1;" x1="317.0972" x2="317.0972" y1="274.3086" y2="309.3086"/><polygon fill="#181818" points="313.0972,299.3086,317.0972,309.3086,321.0972,299.3086,317.0972,303.3086" style="stroke:#181818;stroke-width:1;"/><line style="stroke:#181818;stroke-width:1;" x1="317.0972" x2="317.0972" y1="215.9375" y2="240.3398"/><polygon fill="#181818" points="313.0972,230.3398,317.0972,240.3398,321.0972,230.3398,317.0972,234.3398" style="stroke:#181818;stroke-width:1;"/><line style="stroke:#181818;stroke-width:1;" x1="393.4644" x2="431.6499" y1="203.9375" y2="203.9375"/><polygon fill="#181818" points="427.6499,281.8086,431.6499,291.8086,435.6499,281.8086,431.6499,285.8086" style="stroke:#181818;stroke-width:1;"/><line style="stroke:#181818;stroke-width:1;" x1="431.6499" x2="431.6499" y1="203.9375" y2="375.2773"/><line style="stroke:#181818;stroke-width:1;" x1="431.6499" x2="329.0972" y1="375.2773" y2="375.2773"/><polygon fill="#181818" points="339.0972,371.2773,329.0972,375.2773,339.0972,379.2773,335.0972,375.2773" style="stroke:#181818;stroke-width:1;"/><line style="stroke:#181818;stroke-width:1;" x1="317.0972" x2="317.0972" y1="343.2773" y2="363.2773"/><polygon fill="#181818" points="313.0972,353.2773,317.0972,363.2773,321.0972,353.2773,317.0972,357.2773" style="stroke:#181818;stroke-width:1;"/><line style="stroke:#181818;stroke-width:1;" x1="317.0972" x2="317.0972" y1="171.9375" y2="191.9375"/><polygon fill="#181818" points="313.0972,181.9375,317.0972,191.9375,321.0972,181.9375,317.0972,185.9375" style="stroke:#181818;stroke-width:1;"/><line style="stroke:#181818;stroke-width:1;" x1="317.0972" x2="317.0972" y1="387.2773" y2="407.2773"/><polygon fill="#181818" points="313.0972,397.2773,317.0972,407.2773,321.0972,397.2773,317.0972,401.2773" style="stroke:#181818;stroke-width:1;"/><line style="stroke:#181818;stroke-width:1;" x1="317.0972" x2="317.0972" y1="441.2461" y2="461.2461"/><polygon fill="#181818" points="313.0972,451.2461,317.0972,461.2461,321.0972,451.2461,317.0972,455.2461" style="stroke:#181818;stroke-width:1;"/><line style="stroke:#181818;stroke-width:1;" x1="390.4629" x2="390.4629" y1="583.1836" y2="603.1836"/><polygon fill="#181818" points="386.4629,593.1836,390.4629,603.1836,394.4629,593.1836,390.4629,597.1836" style="stroke:#181818;stroke-width:1;"/><line style="stroke:#181818;stroke-width:1;" x1="255.9624" x2="243.7314" y1="527.2148" y2="527.2148"/><line style="stroke:#181818;stroke-width:1;" x1="243.7314" x2="243.7314" y1="527.2148" y2="549.2148"/><polygon fill="#181818" points="239.7314,539.2148,243.7314,549.2148,247.7314,539.2148,243.7314,543.2148" style="stroke:#181818;stroke-width:1;"/><line style="stroke:#181818;stroke-width:1;" x1="378.2319" x2="390.4629" y1="527.2148" y2="527.2148"/><line style="stroke:#181818;stroke-width:1;" x1="390.4629" x2="390.4629" y1="527.2148" y2="549.2148"/><polygon fill="#181818" points="386.4629,539.2148,390.4629,549.2148,394.4629,539.2148,390.4629,543.2148" style="stroke:#181818;stroke-width:1;"/><line style="stroke:#181818;stroke-width:1;" x1="243.7314" x2="243.7314" y1="583.1836" y2="647.1836"/><line style="stroke:#181818;stroke-width:1;" x1="243.7314" x2="214.4631" y1="647.1836" y2="647.1836"/><polygon fill="#181818" points="224.4631,643.1836,214.4631,647.1836,224.4631,651.1836,220.4631,647.1836" style="stroke:#181818;stroke-width:1;"/><line style="stroke:#181818;stroke-width:1;" x1="317.0972" x2="317.0972" y1="495.2148" y2="515.2148"/><polygon fill="#181818" points="313.0972,505.2148,317.0972,515.2148,321.0972,505.2148,317.0972,509.2148" style="stroke:#181818;stroke-width:1;"/><line style="stroke:#181818;stroke-width:1;" x1="118.3105" x2="87.8291" y1="115.9688" y2="115.9688"/><line style="stroke:#181818;stroke-width:1;" x1="87.8291" x2="87.8291" y1="115.9688" y2="137.9688"/><polygon fill="#181818" points="83.8291,127.9688,87.8291,137.9688,91.8291,127.9688,87.8291,131.9688" style="stroke:#181818;stroke-width:1;"/><line style="stroke:#181818;stroke-width:1;" x1="286.6157" x2="317.0972" y1="115.9688" y2="115.9688"/><line style="stroke:#181818;stroke-width:1;" x1="317.0972" x2="317.0972" y1="115.9688" y2="137.9688"/><polygon fill="#181818" points="313.0972,127.9688,317.0972,137.9688,321.0972,127.9688,317.0972,131.9688" style="stroke:#181818;stroke-width:1;"/><line style="stroke:#181818;stroke-width:1;" x1="87.8291" x2="87.8291" y1="171.9375" y2="647.1836"/><line style="stroke:#181818;stroke-width:1;" x1="87.8291" x2="190.4631" y1="647.1836" y2="647.1836"/><polygon fill="#181818" points="180.4631,643.1836,190.4631,647.1836,180.4631,651.1836,184.4631,647.1836" style="stroke:#181818;stroke-width:1;"/><line style="stroke:#181818;stroke-width:1;" x1="202.4631" x2="202.4631" y1="83.9688" y2="103.9688"/><polygon fill="#181818" points="198.4631,93.9688,202.4631,103.9688,206.4631,93.9688,202.4631,97.9688" style="stroke:#181818;stroke-width:1;"/><line style="stroke:#181818;stroke-width:1;" x1="202.4631" x2="202.4631" y1="659.1836" y2="679.1836"/><polygon fill="#181818" points="198.4631,669.1836,202.4631,679.1836,206.4631,669.1836,202.4631,673.1836" style="stroke:#181818;stroke-width:1;"/><line style="stroke:#181818;stroke-width:1;" x1="202.4631" x2="202.4631" y1="713.1523" y2="733.1523"/><polygon fill="#181818" points="198.4631,723.1523,202.4631,733.1523,206.4631,723.1523,202.4631,727.1523" style="stroke:#181818;stroke-width:1;"/><line style="stroke:#181818;stroke-width:1;" x1="202.4631" x2="202.4631" y1="767.1211" y2="787.1211"/><polygon fill="#181818" points="198.4631,777.1211,202.4631,787.1211,206.4631,777.1211,202.4631,781.1211" style="stroke:#181818;stroke-width:1;"/><line style="stroke:#181818;stroke-width:1;" x1="202.4631" x2="202.4631" y1="821.0898" y2="841.0898"/><polygon fill="#181818" points="198.4631,831.0898,202.4631,841.0898,206.4631,831.0898,202.4631,835.0898" style="stroke:#181818;stroke-width:1;"/><line style="stroke:#181818;stroke-width:1;" x1="202.4631" x2="202.4631" y1="875.0586" y2="895.0586"/><polygon fill="#181818" points="198.4631,885.0586,202.4631,895.0586,206.4631,885.0586,202.4631,889.0586" style="stroke:#181818;stroke-width:1;"/><line style="stroke:#181818;stroke-width:1;" x1="202.4631" x2="202.4631" y1="929.0273" y2="949.0273"/><polygon fill="#181818" points="198.4631,939.0273,202.4631,949.0273,206.4631,939.0273,202.4631,943.0273" style="stroke:#181818;stroke-width:1;"/><line style="stroke:#181818;stroke-width:1;" x1="202.4631" x2="202.4631" y1="982.9961" y2="1002.9961"/><polygon fill="#181818" points="198.4631,992.9961,202.4631,1002.9961,206.4631,992.9961,202.4631,996.9961" style="stroke:#181818;stroke-width:1;"/><line style="stroke:#181818;stroke-width:1;" x1="202.4631" x2="202.4631" y1="1146.644" y2="1175.7417"/><polygon fill="#181818" points="198.4631,1165.7417,202.4631,1175.7417,206.4631,1165.7417,202.4631,1169.7417" style="stroke:#181818;stroke-width:1;"/><line style="stroke:#181818;stroke-width:1;" x1="202.4631" x2="202.4631" y1="1080.9648" y2="1112.6753"/><polygon fill="#181818" points="198.4631,1102.6753,202.4631,1112.6753,206.4631,1102.6753,202.4631,1106.6753" style="stroke:#181818;stroke-width:1;"/><line style="stroke:#181818;stroke-width:1;" x1="202.4631" x2="202.4631" y1="1209.7104" y2="1219.7104"/><line style="stroke:#181818;stroke-width:1;" x1="202.4631" x2="299.7007" y1="1219.7104" y2="1219.7104"/><polygon fill="#181818" points="295.7007,1155.7417,299.7007,1145.7417,303.7007,1155.7417,299.7007,1151.7417" style="stroke:#181818;stroke-width:1;"/><line style="stroke:#181818;stroke-width:1;" x1="299.7007" x2="299.7007" y1="1068.9648" y2="1219.7104"/><line style="stroke:#181818;stroke-width:1;" x1="299.7007" x2="287.7007" y1="1068.9648" y2="1068.9648"/><polygon fill="#181818" points="297.7007,1064.9648,287.7007,1068.9648,297.7007,1072.9648,293.7007,1068.9648" style="stroke:#181818;stroke-width:1;"/><line style="stroke:#181818;stroke-width:1;" x1="117.2256" x2="105.2256" y1="1068.9648" y2="1068.9648"/><polygon fill="#181818" points="101.2256,1141.7417,105.2256,1151.7417,109.2256,1141.7417,105.2256,1145.7417" style="stroke:#181818;stroke-width:1;"/><line style="stroke:#181818;stroke-width:1;" x1="105.2256" x2="105.2256" y1="1068.9648" y2="1231.7104"/><line style="stroke:#181818;stroke-width:1;" x1="105.2256" x2="202.4631" y1="1231.7104" y2="1231.7104"/><line style="stroke:#181818;stroke-width:1;" x1="202.4631" x2="202.4631" y1="1231.7104" y2="1251.7104"/><polygon fill="#181818" points="198.4631,1241.7104,202.4631,1251.7104,206.4631,1241.7104,202.4631,1245.7104" style="stroke:#181818;stroke-width:1;"/><line style="stroke:#181818;stroke-width:1;" x1="202.4631" x2="202.4631" y1="1036.9648" y2="1056.9648"/><polygon fill="#181818" points="198.4631,1046.9648,202.4631,1056.9648,206.4631,1046.9648,202.4631,1050.9648" style="stroke:#181818;stroke-width:1;"/><line style="stroke:#181818;stroke-width:1;" x1="202.4631" x2="202.4631" y1="1285.6792" y2="1305.6792"/><polygon fill="#181818" points="198.4631,1295.6792,202.4631,1305.6792,206.4631,1295.6792,202.4631,1299.6792" style="stroke:#181818;stroke-width:1;"/><line style="stroke:#181818;stroke-width:1;" x1="202.4631" x2="202.4631" y1="1339.6479" y2="1359.6479"/><polygon fill="#181818" points="198.4631,1349.6479,202.4631,1359.6479,206.4631,1349.6479,202.4631,1353.6479" style="stroke:#181818;stroke-width:1;"/><line style="stroke:#181818;stroke-width:1;" x1="202.4631" x2="202.4631" y1="1393.6167" y2="1413.6167"/><polygon fill="#181818" points="198.4631,1403.6167,202.4631,1413.6167,206.4631,1403.6167,202.4631,1407.6167" style="stroke:#181818;stroke-width:1;"/><line style="stroke:#181818;stroke-width:1;" x1="202.4631" x2="202.4631" y1="1447.5854" y2="1467.5854"/><polygon fill="#181818" points="198.4631,1457.5854,202.4631,1467.5854,206.4631,1457.5854,202.4631,1461.5854" style="stroke:#181818;stroke-width:1;"/><line style="stroke:#181818;stroke-width:1;" x1="202.4631" x2="202.4631" y1="1501.5542" y2="1521.5542"/><polygon fill="#181818" points="198.4631,1511.5542,202.4631,1521.5542,206.4631,1511.5542,202.4631,1515.5542" style="stroke:#181818;stroke-width:1;"/><line style="stroke:#181818;stroke-width:1;" x1="202.4631" x2="202.4631" y1="1555.5229" y2="1575.5229"/><polygon fill="#181818" points="198.4631,1565.5229,202.4631,1575.5229,206.4631,1565.5229,202.4631,1569.5229" style="stroke:#181818;stroke-width:1;"/><!--SRC=[TLB1Rjim3BthAuYU4g3Oxl5Xs5fisB4TjZjZqObGMN99EPdtzQDiEROHr0V141yV7z-J9EHapE6t44FiA0YaCm5sdNSr9XT3PLm3kv_JVPzXsEjlIBbEzii-5mBi1fAz0VqEhsGTKvqWHR0evsD4jfKXBmIx40lgsKddSG0VJovyPZevIKekDHFfq8p9WvyZhKRFiFkf8-Ul_jYwL50yoeScSbkj87WfN1OJPecPFFyVKMW2Kh2kCMl6KUIAwl27s3N3HAIARVO3lIowdvPBkA1tzWF9FnX30gnhajAzzMdZ5J57XbQXUA9bAKcnMmcVpfBfn5myNAKnLOMy1YNme78rJNZftR-7kQZoYGKwfeQOWlB0hkFOTkaHT4BZwjwduH4erP_ssbIyUbUExCbaFzDxJv8grVCDwpVL1YSAfE4etLXIbEJk7CpOYugvLUuJCZSxPY8xzbNcUdPUhVlAb5lqR2FJGgK9E5a_rCcW8DUyvWmh0I_lX4awxTR9AhwCoEcOmnDwjI3x9dMUb8KtHFQeYsutIedKjljTRglCRIC7_TMxWCMPaiR5qLKckhE-xiY3jdzNxy-R6GADHlJHc6sxoG_dFm00]--></g></svg>