<svg xmlns="http://www.w3.org/2000/svg" xmlns:xlink="http://www.w3.org/1999/xlink" contentStyleType="text/css" height="1597.9167px" preserveAspectRatio="xMidYMid meet" style="width: 100%; height: 100%; max-width: 100%; position: absolute; top: 50%; left: 50%; transform: translate(-50%, -50%);" version="1.1" viewBox="0 0 1363 1597" width="1363.5417px" zoomAndPan="magnify"><defs/><g><!--cluster Quiz Application--><g id="cluster_Quiz Application"><path d="M10.4167,52.375 L133.9172,52.375 A6.25,6.25 0 0 1 138.0839,56.5417 L145.3756,83.5924 L1121.875,83.5924 A4.1667,4.1667 0 0 1 1126.0417,87.7591 L1126.0417,1586.4896 A4.1667,4.1667 0 0 1 1121.875,1590.6563 L10.4167,1590.6563 A4.1667,4.1667 0 0 1 6.25,1586.4896 L6.25,56.5417 A4.1667,4.1667 0 0 1 10.4167,52.375 " fill="none" style="stroke:#4E5D6C;stroke-width:2.0833;"/><line style="stroke:#4E5D6C;stroke-width:2.0833;" x1="6.25" x2="145.3756" y1="83.5924" y2="83.5924"/><text fill="#4E5D6C" font-family="Verdana" font-size="12.5" font-weight="bold" lengthAdjust="spacing" textLength="115.1672" x="15.625" y="71.2694">Quiz Application</text></g><!--cluster Frontend Layer--><g id="cluster_Frontend Layer"><path d="M35.4167,104.4583 L151.7822,104.4583 A6.25,6.25 0 0 1 155.9489,108.625 L163.2406,135.6758 L394.7917,135.6758 A4.1667,4.1667 0 0 1 398.9583,139.8424 L398.9583,655.3646 A4.1667,4.1667 0 0 1 394.7917,659.5313 L35.4167,659.5313 A4.1667,4.1667 0 0 1 31.25,655.3646 L31.25,108.625 A4.1667,4.1667 0 0 1 35.4167,104.4583 " fill="none" style="stroke:#4E5D6C;stroke-width:2.0833;"/><line style="stroke:#4E5D6C;stroke-width:2.0833;" x1="31.25" x2="163.2406" y1="135.6758" y2="135.6758"/><text fill="#4E5D6C" font-family="Verdana" font-size="12.5" font-weight="bold" lengthAdjust="spacing" textLength="108.0322" x="40.625" y="123.3528">Frontend Layer</text></g><!--cluster Backend Layer--><g id="cluster_Backend Layer"><path d="M428.125,542.9063 L540.0106,542.9063 A6.25,6.25 0 0 1 544.1772,547.0729 L551.4689,574.1237 L861.4583,574.1237 A4.1667,4.1667 0 0 1 865.625,578.2904 L865.625,1139.6771 A4.1667,4.1667 0 0 1 861.4583,1143.8438 L428.125,1143.8438 A4.1667,4.1667 0 0 1 423.9583,1139.6771 L423.9583,547.0729 A4.1667,4.1667 0 0 1 428.125,542.9063 " fill="none" style="stroke:#4E5D6C;stroke-width:2.0833;"/><line style="stroke:#4E5D6C;stroke-width:2.0833;" x1="423.9583" x2="551.4689" y1="574.1237" y2="574.1237"/><text fill="#4E5D6C" font-family="Verdana" font-size="12.5" font-weight="bold" lengthAdjust="spacing" textLength="103.5522" x="433.3333" y="561.8007">Backend Layer</text></g><!--cluster Data Layer--><g id="cluster_Data Layer"><path d="M519.7917,1203.2188 L604.8889,1203.2188 A6.25,6.25 0 0 1 609.0556,1207.3854 L616.3472,1234.4362 L1022.9167,1234.4362 A4.1667,4.1667 0 0 1 1027.0833,1238.6029 L1027.0833,1561.4896 A4.1667,4.1667 0 0 1 1022.9167,1565.6563 L519.7917,1565.6563 A4.1667,4.1667 0 0 1 515.625,1561.4896 L515.625,1207.3854 A4.1667,4.1667 0 0 1 519.7917,1203.2188 " fill="none" style="stroke:#4E5D6C;stroke-width:2.0833;"/><line style="stroke:#4E5D6C;stroke-width:2.0833;" x1="515.625" x2="616.3472" y1="1234.4362" y2="1234.4362"/><text fill="#4E5D6C" font-family="Verdana" font-size="12.5" font-weight="bold" lengthAdjust="spacing" textLength="76.7639" x="525" y="1222.1132">Data Layer</text></g><!--cluster DB--><g id="cluster_DB"><path d="M548.9583,1274.0521 C548.9583,1263.6354 771.3542,1263.6354 771.3542,1263.6354 C771.3542,1263.6354 993.75,1263.6354 993.75,1274.0521 L993.75,1521.9063 C993.75,1532.3229 771.3542,1532.3229 771.3542,1532.3229 C771.3542,1532.3229 548.9583,1532.3229 548.9583,1521.9063 L548.9583,1274.0521 " fill="#F0F0F0" style="stroke:#4E5D6C;stroke-width:1.0417;"/><path d="M548.9583,1274.0521 C548.9583,1284.4688 771.3542,1284.4688 771.3542,1284.4688 C771.3542,1284.4688 993.75,1284.4688 993.75,1274.0521 " fill="none" style="stroke:#4E5D6C;stroke-width:1.0417;"/><text fill="#4E5D6C" font-family="Verdana" font-size="12.5" font-weight="bold" lengthAdjust="spacing" textLength="119.0552" x="711.8266" y="1303.3632">MySQL Database</text></g><!--cluster External Services--><g id="cluster_External Services"><path d="M894.7917,1027.2083 L1025.7202,1027.2083 A6.25,6.25 0 0 1 1029.8869,1031.375 L1037.1785,1058.4258 L1096.875,1058.4258 A4.1667,4.1667 0 0 1 1101.0417,1062.5924 L1101.0417,1139.6771 A4.1667,4.1667 0 0 1 1096.875,1143.8438 L894.7917,1143.8438 A4.1667,4.1667 0 0 1 890.625,1139.6771 L890.625,1031.375 A4.1667,4.1667 0 0 1 894.7917,1027.2083 " fill="none" style="stroke:#4E5D6C;stroke-width:2.0833;"/><line style="stroke:#4E5D6C;stroke-width:2.0833;" x1="890.625" x2="1037.1785" y1="1058.4258" y2="1058.4258"/><text fill="#4E5D6C" font-family="Verdana" font-size="12.5" font-weight="bold" lengthAdjust="spacing" textLength="122.5952" x="900" y="1046.1028">External Services</text></g><!--entity UI--><g id="elem_UI"><rect fill="#FFFFFF" height="56.2174" rx="4.1667" ry="4.1667" style="stroke:#666666;stroke-width:1.0417;" width="140.5111" x="59.9479" y="148.2083"/><rect fill="#FFFFFF" height="10.4167" style="stroke:#666666;stroke-width:1.0417;" width="15.625" x="179.6257" y="153.4167"/><rect fill="#FFFFFF" height="2.0833" style="stroke:#666666;stroke-width:1.0417;" width="4.1667" x="177.5423" y="155.5"/><rect fill="#FFFFFF" height="2.0833" style="stroke:#666666;stroke-width:1.0417;" width="4.1667" x="177.5423" y="159.6667"/><text fill="#000000" font-family="Verdana" font-size="12.5" lengthAdjust="spacing" textLength="88.4277" x="80.7813" y="185.8528">User Interface</text></g><!--entity State--><g id="elem_State"><rect fill="#FFFFFF" height="56.2174" rx="4.1667" ry="4.1667" style="stroke:#666666;stroke-width:1.0417;" width="171.4864" x="101.7604" y="412.7292"/><rect fill="#FFFFFF" height="10.4167" style="stroke:#666666;stroke-width:1.0417;" width="15.625" x="252.4135" y="417.9375"/><rect fill="#FFFFFF" height="2.0833" style="stroke:#666666;stroke-width:1.0417;" width="4.1667" x="250.3302" y="420.0208"/><rect fill="#FFFFFF" height="2.0833" style="stroke:#666666;stroke-width:1.0417;" width="4.1667" x="250.3302" y="424.1875"/><text fill="#000000" font-family="Verdana" font-size="12.5" lengthAdjust="spacing" textLength="119.4031" x="122.5938" y="450.3736">State Management</text></g><!--entity APIClient--><g id="elem_APIClient"><rect fill="#FFFFFF" height="56.2174" rx="4.1667" ry="4.1667" style="stroke:#666666;stroke-width:1.0417;" width="112.0199" x="246.0729" y="586.6563"/><rect fill="#FFFFFF" height="10.4167" style="stroke:#666666;stroke-width:1.0417;" width="15.625" x="337.2594" y="591.8646"/><rect fill="#FFFFFF" height="2.0833" style="stroke:#666666;stroke-width:1.0417;" width="4.1667" x="335.1761" y="593.9479"/><rect fill="#FFFFFF" height="2.0833" style="stroke:#666666;stroke-width:1.0417;" width="4.1667" x="335.1761" y="598.1146"/><text fill="#000000" font-family="Verdana" font-size="12.5" lengthAdjust="spacing" textLength="59.9365" x="266.9063" y="624.3007">API Client</text></g><!--entity AuthUI--><g id="elem_AuthUI"><rect fill="#FFFFFF" height="56.2174" rx="4.1667" ry="4.1667" style="stroke:#666666;stroke-width:1.0417;" width="160.6527" x="221.7604" y="292.9688"/><rect fill="#FFFFFF" height="10.4167" style="stroke:#666666;stroke-width:1.0417;" width="15.625" x="361.5798" y="298.1771"/><rect fill="#FFFFFF" height="2.0833" style="stroke:#666666;stroke-width:1.0417;" width="4.1667" x="359.4964" y="300.2604"/><rect fill="#FFFFFF" height="2.0833" style="stroke:#666666;stroke-width:1.0417;" width="4.1667" x="359.4964" y="304.4271"/><text fill="#000000" font-family="Verdana" font-size="12.5" lengthAdjust="spacing" textLength="108.5693" x="242.5938" y="330.6132">Authentication UI</text></g><!--entity UIEvents--><g id="elem_UIEvents"><ellipse cx="245.8333" cy="176.3125" fill="#FFFFFF" rx="8.3333" ry="8.3333" style="stroke:#000000;stroke-width:1.0417;"/><text fill="#4E5D6C" font-family="Verdana" font-size="12.5" lengthAdjust="spacing" textLength="74.7864" x="208.4401" y="210.8319">User Events</text></g><!--entity APIInterface--><g id="elem_APIInterface"><ellipse cx="318.75" cy="440.8333" fill="#FFFFFF" rx="8.3333" ry="8.3333" style="stroke:#000000;stroke-width:1.0417;"/><text fill="#4E5D6C" font-family="Verdana" font-size="12.5" lengthAdjust="spacing" textLength="79.7119" x="278.894" y="475.3528">API Interface</text></g><!--entity AuthService--><g id="elem_AuthService"><rect fill="#FFFFFF" height="56.2174" rx="4.1667" ry="4.1667" style="stroke:#666666;stroke-width:1.0417;" width="194.0145" x="440.4896" y="586.6563"/><rect fill="#FFFFFF" height="10.4167" style="stroke:#666666;stroke-width:1.0417;" width="15.625" x="613.6707" y="591.8646"/><rect fill="#FFFFFF" height="2.0833" style="stroke:#666666;stroke-width:1.0417;" width="4.1667" x="611.5874" y="593.9479"/><rect fill="#FFFFFF" height="2.0833" style="stroke:#666666;stroke-width:1.0417;" width="4.1667" x="611.5874" y="598.1146"/><text fill="#000000" font-family="Verdana" font-size="12.5" lengthAdjust="spacing" textLength="141.9312" x="461.3229" y="624.3007">Authentication Service</text></g><!--entity QuizCtrl--><g id="elem_QuizCtrl"><rect fill="#FFFFFF" height="56.2174" rx="4.1667" ry="4.1667" style="stroke:#666666;stroke-width:1.0417;" width="145.6136" x="674.0729" y="586.6563"/><rect fill="#FFFFFF" height="10.4167" style="stroke:#666666;stroke-width:1.0417;" width="15.625" x="798.8532" y="591.8646"/><rect fill="#FFFFFF" height="2.0833" style="stroke:#666666;stroke-width:1.0417;" width="4.1667" x="796.7699" y="593.9479"/><rect fill="#FFFFFF" height="2.0833" style="stroke:#666666;stroke-width:1.0417;" width="4.1667" x="796.7699" y="598.1146"/><text fill="#000000" font-family="Verdana" font-size="12.5" lengthAdjust="spacing" textLength="93.5303" x="694.9063" y="624.3007">Quiz Controller</text></g><!--entity QuizService--><g id="elem_QuizService"><rect fill="#FFFFFF" height="56.2174" rx="4.1667" ry="4.1667" style="stroke:#666666;stroke-width:1.0417;" width="130.0496" x="657.8958" y="733.4896"/><rect fill="#FFFFFF" height="10.4167" style="stroke:#666666;stroke-width:1.0417;" width="15.625" x="767.1121" y="738.6979"/><rect fill="#FFFFFF" height="2.0833" style="stroke:#666666;stroke-width:1.0417;" width="4.1667" x="765.0288" y="740.7813"/><rect fill="#FFFFFF" height="2.0833" style="stroke:#666666;stroke-width:1.0417;" width="4.1667" x="765.0288" y="744.9479"/><text fill="#000000" font-family="Verdana" font-size="12.5" lengthAdjust="spacing" textLength="77.9663" x="678.7292" y="771.134">Quiz Service</text></g><!--entity QGen--><g id="elem_QGen"><rect fill="#FFFFFF" height="56.2174" rx="4.1667" ry="4.1667" style="stroke:#666666;stroke-width:1.0417;" width="175.4415" x="673.7396" y="887.6458"/><rect fill="#FFFFFF" height="10.4167" style="stroke:#666666;stroke-width:1.0417;" width="15.625" x="828.3477" y="892.8542"/><rect fill="#FFFFFF" height="2.0833" style="stroke:#666666;stroke-width:1.0417;" width="4.1667" x="826.2644" y="894.9375"/><rect fill="#FFFFFF" height="2.0833" style="stroke:#666666;stroke-width:1.0417;" width="4.1667" x="826.2644" y="899.1042"/><text fill="#000000" font-family="Verdana" font-size="12.5" lengthAdjust="spacing" textLength="123.3582" x="694.5729" y="925.2903">Question Generator</text></g><!--entity DAL--><g id="elem_DAL"><rect fill="#FFFFFF" height="56.2174" rx="4.1667" ry="4.1667" style="stroke:#666666;stroke-width:1.0417;" width="167.7389" x="680.7188" y="1070.9583"/><rect fill="#FFFFFF" height="10.4167" style="stroke:#666666;stroke-width:1.0417;" width="15.625" x="827.6243" y="1076.1667"/><rect fill="#FFFFFF" height="2.0833" style="stroke:#666666;stroke-width:1.0417;" width="4.1667" x="825.5409" y="1078.25"/><rect fill="#FFFFFF" height="2.0833" style="stroke:#666666;stroke-width:1.0417;" width="4.1667" x="825.5409" y="1082.4167"/><text fill="#000000" font-family="Verdana" font-size="12.5" lengthAdjust="spacing" textLength="115.6555" x="701.5521" y="1108.6028">Data Access Layer</text></g><!--entity AuthAPI--><g id="elem_AuthAPI"><ellipse cx="450" cy="761.6042" fill="#FFFFFF" rx="8.3333" ry="8.3333" style="stroke:#000000;stroke-width:1.0417;"/><text fill="#4E5D6C" font-family="Verdana" font-size="12.5" lengthAdjust="spacing" textLength="53.0457" x="423.4772" y="796.1236">Auth API</text></g><!--entity QuizAPI--><g id="elem_QuizAPI"><ellipse cx="612.5" cy="761.6042" fill="#FFFFFF" rx="8.3333" ry="8.3333" style="stroke:#000000;stroke-width:1.0417;"/><text fill="#4E5D6C" font-family="Verdana" font-size="12.5" lengthAdjust="spacing" textLength="51.5442" x="586.7279" y="796.1236">Quiz API</text></g><!--entity DataAPI--><g id="elem_DataAPI"><ellipse cx="579.1667" cy="915.75" fill="#FFFFFF" rx="8.3333" ry="8.3333" style="stroke:#000000;stroke-width:1.0417;"/><text fill="#4E5D6C" font-family="Verdana" font-size="12.5" lengthAdjust="spacing" textLength="89.7827" x="534.2753" y="950.2694">Data Interface</text></g><!--entity Users--><g id="elem_Users"><rect fill="#FFFFFF" height="56.2174" rx="4.1667" ry="4.1667" style="stroke:#666666;stroke-width:1.0417;" width="87.087" x="574.1667" y="1331.3438"/><rect fill="#FFFFFF" height="10.4167" style="stroke:#666666;stroke-width:1.0417;" width="15.625" x="640.4203" y="1336.5521"/><rect fill="#FFFFFF" height="2.0833" style="stroke:#666666;stroke-width:1.0417;" width="4.1667" x="638.337" y="1338.6354"/><rect fill="#FFFFFF" height="2.0833" style="stroke:#666666;stroke-width:1.0417;" width="4.1667" x="638.337" y="1342.8021"/><text fill="#000000" font-family="Verdana" font-size="12.5" lengthAdjust="spacing" textLength="35.0037" x="595" y="1368.9882">Users</text></g><!--entity Quizzes--><g id="elem_Quizzes"><rect fill="#FFFFFF" height="56.2174" rx="4.1667" ry="4.1667" style="stroke:#666666;stroke-width:1.0417;" width="100.6429" x="697.5938" y="1331.3438"/><rect fill="#FFFFFF" height="10.4167" style="stroke:#666666;stroke-width:1.0417;" width="15.625" x="777.4033" y="1336.5521"/><rect fill="#FFFFFF" height="2.0833" style="stroke:#666666;stroke-width:1.0417;" width="4.1667" x="775.32" y="1338.6354"/><rect fill="#FFFFFF" height="2.0833" style="stroke:#666666;stroke-width:1.0417;" width="4.1667" x="775.32" y="1342.8021"/><text fill="#000000" font-family="Verdana" font-size="12.5" lengthAdjust="spacing" textLength="48.5596" x="718.4271" y="1368.9882">Quizzes</text></g><!--entity Questions--><g id="elem_Questions"><rect fill="#FFFFFF" height="56.2174" rx="4.1667" ry="4.1667" style="stroke:#666666;stroke-width:1.0417;" width="114.504" x="834.4167" y="1331.3438"/><rect fill="#FFFFFF" height="10.4167" style="stroke:#666666;stroke-width:1.0417;" width="15.625" x="928.0873" y="1336.5521"/><rect fill="#FFFFFF" height="2.0833" style="stroke:#666666;stroke-width:1.0417;" width="4.1667" x="926.004" y="1338.6354"/><rect fill="#FFFFFF" height="2.0833" style="stroke:#666666;stroke-width:1.0417;" width="4.1667" x="926.004" y="1342.8021"/><text fill="#000000" font-family="Verdana" font-size="12.5" lengthAdjust="spacing" textLength="62.4207" x="855.25" y="1368.9882">Questions</text></g><!--entity Attempts--><g id="elem_Attempts"><rect fill="#FFFFFF" height="56.2174" rx="4.1667" ry="4.1667" style="stroke:#666666;stroke-width:1.0417;" width="109.6517" x="574.3438" y="1451.1042"/><rect fill="#FFFFFF" height="10.4167" style="stroke:#666666;stroke-width:1.0417;" width="15.625" x="663.1621" y="1456.3125"/><rect fill="#FFFFFF" height="2.0833" style="stroke:#666666;stroke-width:1.0417;" width="4.1667" x="661.0788" y="1458.3958"/><rect fill="#FFFFFF" height="2.0833" style="stroke:#666666;stroke-width:1.0417;" width="4.1667" x="661.0788" y="1462.5625"/><text fill="#000000" font-family="Verdana" font-size="12.5" lengthAdjust="spacing" textLength="57.5684" x="595.1771" y="1488.7486">Attempts</text></g><!--entity Results--><g id="elem_Results"><rect fill="#FFFFFF" height="56.2174" rx="4.1667" ry="4.1667" style="stroke:#666666;stroke-width:1.0417;" width="97.7804" x="720.9063" y="1451.1042"/><rect fill="#FFFFFF" height="10.4167" style="stroke:#666666;stroke-width:1.0417;" width="15.625" x="797.8533" y="1456.3125"/><rect fill="#FFFFFF" height="2.0833" style="stroke:#666666;stroke-width:1.0417;" width="4.1667" x="795.7699" y="1458.3958"/><rect fill="#FFFFFF" height="2.0833" style="stroke:#666666;stroke-width:1.0417;" width="4.1667" x="795.7699" y="1462.5625"/><text fill="#000000" font-family="Verdana" font-size="12.5" lengthAdjust="spacing" textLength="45.697" x="741.7396" y="1488.7486">Results</text></g><!--entity ExtAPI--><g id="elem_ExtAPI"><rect fill="#FFFFFF" height="56.2174" rx="4.1667" ry="4.1667" style="stroke:#666666;stroke-width:1.0417;" width="177.3336" x="907.1667" y="1070.9583"/><rect fill="#FFFFFF" height="10.4167" style="stroke:#666666;stroke-width:1.0417;" width="15.625" x="1063.6669" y="1076.1667"/><rect fill="#FFFFFF" height="2.0833" style="stroke:#666666;stroke-width:1.0417;" width="4.1667" x="1061.5836" y="1078.25"/><rect fill="#FFFFFF" height="2.0833" style="stroke:#666666;stroke-width:1.0417;" width="4.1667" x="1061.5836" y="1082.4167"/><text fill="#000000" font-family="Verdana" font-size="12.5" lengthAdjust="spacing" textLength="125.2502" x="928" y="1108.6028">Quiz Generation API</text></g><g id="elem_GMN48"><path d="M1143.0521,155.5208 L1143.0521,197.1224 A4.1667,4.1667 0 0 0 1147.2188,201.2891 L1336.1124,201.2891 A4.1667,4.1667 0 0 0 1340.2791,197.1224 L1340.2791,161.7708 L1329.8624,151.3542 L1147.2188,151.3542 A4.1667,4.1667 0 0 0 1143.0521,155.5208 " fill="#0073BB" style="stroke:#005C96;stroke-width:1.0417;"/><path d="M1329.8624,151.3542 L1329.8624,159.6875 A2.0833,2.0833 0 0 0 1331.9457,161.7708 L1340.2791,161.7708 L1329.8624,151.3542 " fill="#0073BB" style="stroke:#005C96;stroke-width:1.0417;"/><text fill="#FFFFFF" font-family="Verdana" font-size="12.5" lengthAdjust="spacing" textLength="164.9353" x="1154.5104" y="173.3736">Composants React/Next.js</text><text fill="#FFFFFF" font-family="Verdana" font-size="12.5" lengthAdjust="spacing" textLength="162.3169" x="1154.5104" y="187.9244">pour l'interface utilisateur</text></g><g id="elem_GMN51"><path d="M1142.7813,601.2396 L1142.7813,628.2904 A4.1667,4.1667 0 0 0 1146.9479,632.457 L1319.7161,632.457 A4.1667,4.1667 0 0 0 1323.8827,628.2904 L1323.8827,607.4896 L1313.4661,597.0729 L1146.9479,597.0729 A4.1667,4.1667 0 0 0 1142.7813,601.2396 " fill="#0073BB" style="stroke:#005C96;stroke-width:1.0417;"/><path d="M1313.4661,597.0729 L1313.4661,605.4063 A2.0833,2.0833 0 0 0 1315.5494,607.4896 L1323.8827,607.4896 L1313.4661,597.0729 " fill="#0073BB" style="stroke:#005C96;stroke-width:1.0417;"/><text fill="#FFFFFF" font-family="Verdana" font-size="12.5" lengthAdjust="spacing" textLength="148.8098" x="1154.2396" y="619.0924">Gestion JWT et sessions</text></g><g id="elem_GMN54"><path d="M1142.3229,740.8021 L1142.3229,757.4375 L788.375,761.6042 L1142.3229,765.7708 L1142.3229,782.4036 A4.1667,4.1667 0 0 0 1146.4896,786.5703 L1330.6042,786.5703 A4.1667,4.1667 0 0 0 1334.7708,782.4036 L1334.7708,747.0521 L1324.3542,736.6354 L1146.4896,736.6354 A4.1667,4.1667 0 0 0 1142.3229,740.8021 " fill="#0073BB" style="stroke:#005C96;stroke-width:1.0417;"/><path d="M1324.3542,736.6354 L1324.3542,744.9688 A2.0833,2.0833 0 0 0 1326.4375,747.0521 L1334.7708,747.0521 L1324.3542,736.6354 " fill="#0073BB" style="stroke:#005C96;stroke-width:1.0417;"/><text fill="#FFFFFF" font-family="Verdana" font-size="12.5" lengthAdjust="spacing" textLength="160.1563" x="1153.7813" y="758.6549">Logique métier principale</text><text fill="#FFFFFF" font-family="Verdana" font-size="12.5" lengthAdjust="spacing" textLength="149.7803" x="1153.7813" y="773.2056">pour la gestion des quiz</text></g><g id="elem_GMN57"><path d="M1142.8646,1078.2708 L1142.8646,1119.8724 A4.1667,4.1667 0 0 0 1147.0313,1124.0391 L1352.972,1124.0391 A4.1667,4.1667 0 0 0 1357.1387,1119.8724 L1357.1387,1084.5208 L1346.722,1074.1042 L1147.0313,1074.1042 A4.1667,4.1667 0 0 0 1142.8646,1078.2708 " fill="#0073BB" style="stroke:#005C96;stroke-width:1.0417;"/><path d="M1346.722,1074.1042 L1346.722,1082.4375 A2.0833,2.0833 0 0 0 1348.8053,1084.5208 L1357.1387,1084.5208 L1346.722,1074.1042 " fill="#0073BB" style="stroke:#005C96;stroke-width:1.0417;"/><text fill="#FFFFFF" font-family="Verdana" font-size="12.5" lengthAdjust="spacing" textLength="181.9824" x="1154.3229" y="1096.1236">Couche d'accès aux données</text><text fill="#FFFFFF" font-family="Verdana" font-size="12.5" lengthAdjust="spacing" textLength="98.2849" x="1154.3229" y="1110.6744">via Prisma ORM</text></g><g id="elem_GMN60"><path d="M1142.4375,1338.6563 L1142.4375,1380.2578 A4.1667,4.1667 0 0 0 1146.6042,1384.4245 L1295.062,1384.4245 A4.1667,4.1667 0 0 0 1299.2287,1380.2578 L1299.2287,1344.9063 L1288.812,1334.4896 L1146.6042,1334.4896 A4.1667,4.1667 0 0 0 1142.4375,1338.6563 " fill="#0073BB" style="stroke:#005C96;stroke-width:1.0417;"/><path d="M1288.812,1334.4896 L1288.812,1342.8229 A2.0833,2.0833 0 0 0 1290.8953,1344.9063 L1299.2287,1344.9063 L1288.812,1334.4896 " fill="#0073BB" style="stroke:#005C96;stroke-width:1.0417;"/><text fill="#FFFFFF" font-family="Verdana" font-size="12.5" lengthAdjust="spacing" textLength="124.4995" x="1153.8958" y="1356.509">Stockage persistant</text><text fill="#FFFFFF" font-family="Verdana" font-size="12.5" lengthAdjust="spacing" textLength="79.4312" x="1153.8958" y="1371.0598">des données</text></g><!--link UI to UIEvents--><g id="link_UI_UIEvents"><path d="M200.6667,176.3125 C212.4271,176.3125 224.1875,176.3125 235.9583,176.3125 " fill="none" id="UI-UIEvents" style="stroke:#666666;stroke-width:3.125;"/></g><!--link State to APIInterface--><g id="link_State_APIInterface"><path d="M273.6354,440.8333 C285.3854,440.8333 297.1354,440.8333 308.8854,440.8333 " fill="none" id="State-APIInterface" style="stroke:#666666;stroke-width:3.125;"/></g><!--link AuthUI to State--><g id="link_AuthUI_State"><path d="M275.5104,349.4063 C257.125,368.2813 232.7604,393.3125 214.3333,412.2396 " fill="none" id="AuthUI-State" style="stroke:#666666;stroke-width:3.125;"/></g><!--link APIClient to APIInterface--><g id="link_APIClient_APIInterface"><path d="M314.5833,586.4063 C321.625,569.4688 329.7292,547.0521 333.3333,526.2396 C335.3125,514.8333 334.75,511.6771 333.3333,500.1979 C331.1146,482.1667 325.1771,461.7083 321.5938,450.4479 " fill="none" id="APIClient-APIInterface" style="stroke:#666666;stroke-width:3.125;"/></g><!--link APIInterface to APIClient--><g id="link_APIInterface_APIClient"><path d="M310.25,450.4479 C304.9271,455.7917 297.9271,462.7917 291.6667,468.9479 C277.4271,482.9479 267.1667,481.8021 259.375,500.1979 C247.0521,529.2812 260.2789,558.1091 276.2893,581.2654 " fill="none" id="APIInterface-to-APIClient" style="stroke:#666666;stroke-width:3.125;"/><polygon fill="#666666" points="279.8438,586.4063,277.9393,576.3253,276.8817,582.1222,271.0849,581.0646,279.8438,586.4063" style="stroke:#666666;stroke-width:3.125;"/><text fill="#4E5D6C" font-family="Verdana" font-size="12.5" lengthAdjust="spacing" textLength="53.595" x="265.625" y="518.0507">API Calls</text></g><!--link AuthService to AuthAPI--><g id="link_AuthService_AuthAPI"><path d="M478.0208,643.2813 C465.5417,651.9688 454.0104,662.8646 446.875,676.1979 C433.5938,701.0104 441.9896,736.0625 447.0208,752.0313 " fill="none" id="AuthService-AuthAPI" style="stroke:#666666;stroke-width:3.125;"/></g><!--link AuthAPI to AuthService--><g id="link_AuthAPI_AuthService"><path d="M451.9375,752.1667 C455.8021,736.4167 465.5208,701.7292 481.25,676.1979 C488.4688,664.4896 493.8455,657.5785 503.1789,647.8702 " fill="none" id="AuthAPI-to-AuthService" style="stroke:#666666;stroke-width:3.125;"/><polygon fill="#666666" points="507.5104,643.3646,498.0094,647.2353,503.9008,647.1192,504.0168,653.0106,507.5104,643.3646" style="stroke:#666666;stroke-width:3.125;"/><text fill="#4E5D6C" font-family="Verdana" font-size="12.5" lengthAdjust="spacing" textLength="84.8511" x="487.5" y="694.0507">Validate/Auth</text></g><!--link QuizCtrl to QuizAPI--><g id="link_QuizCtrl_QuizAPI"><path d="M748.5104,643 C749.2396,664.8542 748.6875,693.3229 741.6667,702.2396 C712.3125,739.5208 680.25,709.0521 639.5833,733.4896 C631.6042,738.2917 624.25,745.9375 619.2292,751.875 " fill="none" id="QuizCtrl-QuizAPI" style="stroke:#666666;stroke-width:3.125;"/></g><!--link QuizAPI to QuizCtrl--><g id="link_QuizAPI_QuizCtrl"><path d="M609.7604,751.9583 C605.0208,735.2292 597.4271,698.0521 615.625,676.1979 C626.5521,663.0833 637.1667,673.9271 653.125,667.8646 C670.3542,661.3333 682.8621,655.1763 698.3621,646.2701 " fill="none" id="QuizAPI-to-QuizCtrl" style="stroke:#666666;stroke-width:3.125;"/><polygon fill="#666666" points="703.7813,643.1563,693.5767,644.2142,699.2653,645.7511,697.7285,651.4397,703.7813,643.1563" style="stroke:#666666;stroke-width:3.125;"/><text fill="#4E5D6C" font-family="Verdana" font-size="12.5" lengthAdjust="spacing" textLength="105.9021" x="621.875" y="694.0507">Handle Requests</text></g><!--link QuizService to DataAPI--><g id="link_QuizService_DataAPI"><path d="M694.1771,790.1771 C684.3333,799.7917 673.3333,810.7292 663.5417,820.9583 C633.8646,851.9688 600.1667,890.4479 586.0104,906.7813 " fill="none" id="QuizService-DataAPI" style="stroke:#666666;stroke-width:3.125;"/></g><!--link QGen to QuizService--><g id="link_QGen_QuizService"><path d="M711.2917,887.375 C696.8854,876.8125 682.9271,863.2917 675,847 C665.4896,827.4688 677.7292,806.1979 692.2188,789.9063 " fill="none" id="QGen-QuizService" style="stroke:#666666;stroke-width:3.125;"/></g><!--link QuizService to QGen--><g id="link_QuizService_QGen"><path d="M729.8958,790.1875 C736.8854,817.7396 746.0261,853.8376 752.9949,881.3168 " fill="none" id="QuizService-to-QGen" style="stroke:#666666;stroke-width:3.125;"/><polygon fill="#666666" points="754.5313,887.375,756.2655,877.2634,753.2509,882.3265,748.1879,879.3119,754.5313,887.375" style="stroke:#666666;stroke-width:3.125;"/><text fill="#4E5D6C" font-family="Verdana" font-size="12.5" lengthAdjust="spacing" textLength="124.7742" x="749.5938" y="838.8111">Generate Questions</text></g><!--link UIEvents to AuthUI--><g id="link_UIEvents_AuthUI"><path d="M249.1875,185.8542 C257.2917,206.4375 275.989,253.8418 288.9577,286.7376 " fill="none" id="UIEvents-to-AuthUI" style="stroke:#666666;stroke-width:3.125;"/><polygon fill="#666666" points="291.25,292.5521,291.6879,282.3022,289.3398,287.7067,283.9353,285.3586,291.25,292.5521" style="stroke:#666666;stroke-width:3.125;"/><text fill="#4E5D6C" font-family="Verdana" font-size="12.5" lengthAdjust="spacing" textLength="124.2249" x="285.25" y="253.5299">User Authentication</text></g><!--link UIEvents to State--><g id="link_UIEvents_State"><path d="M237.5833,186.1979 C232.3542,191.6458 225.3646,198.6563 218.75,204.4271 C169.6875,247.2083 131.0313,234.6667 102.0833,292.9688 C90.9688,315.3438 92.8646,325.9583 102.0833,349.1875 C111.9792,374.1042 127.6249,392.0133 145.9791,408.1175 " fill="none" id="UIEvents-to-State" style="stroke:#666666;stroke-width:3.125;"/><polygon fill="#666666" points="150.6771,412.2396,146.3782,402.9245,146.7621,408.8045,140.8821,409.1885,150.6771,412.2396" style="stroke:#666666;stroke-width:3.125;"/><text fill="#4E5D6C" font-family="Verdana" font-size="12.5" lengthAdjust="spacing" textLength="88.8428" x="108.3333" y="325.9049">State Updates</text></g><!--link APIClient to AuthAPI--><g id="link_APIClient_AuthAPI"><path d="M245.75,630.6875 C200.7083,645.3542 149.0521,670.2083 175,702.2396 C209.5625,744.9063 389.5616,757.281 434.1553,759.7393 " fill="none" id="APIClient-to-AuthAPI" style="stroke:#666666;stroke-width:3.125;"/><polygon fill="#666666" points="440.3958,760.0833,431.2644,755.4069,435.1954,759.7966,430.8057,763.7276,440.3958,760.0833" style="stroke:#666666;stroke-width:3.125;"/><text fill="#4E5D6C" font-family="Verdana" font-size="12.5" lengthAdjust="spacing" textLength="91.1194" x="181.25" y="694.0507">Auth Requests</text></g><!--link APIClient to QuizAPI--><g id="link_APIClient_QuizAPI"><path d="M309.8333,643.2708 C316.7188,662.6458 328.7188,687.6458 347.9167,702.2396 C358.4896,710.2917 550.4714,748.3783 596.7527,757.4721 " fill="none" id="APIClient-to-QuizAPI" style="stroke:#666666;stroke-width:3.125;"/><polygon fill="#666666" points="602.8854,758.6771,594.4897,752.7811,597.7748,757.6729,592.883,760.9581,602.8854,758.6771" style="stroke:#666666;stroke-width:3.125;"/><text fill="#4E5D6C" font-family="Verdana" font-size="12.5" lengthAdjust="spacing" textLength="100.4883" x="354.1667" y="694.0507">Quiz Operations</text></g><!--link QuizCtrl to QuizService--><g id="link_QuizCtrl_QuizService"><path d="M750.7708,643.3542 C752.4063,660.4896 753.0938,682.8646 748.9583,702.2396 C746.7188,712.7604 745.0928,718.0296 740.6344,727.5296 " fill="none" id="QuizCtrl-to-QuizService" style="stroke:#666666;stroke-width:3.125;"/><polygon fill="#666666" points="737.9792,733.1875,745.734,726.4708,740.1919,728.4726,738.1901,722.9304,737.9792,733.1875" style="stroke:#666666;stroke-width:3.125;"/><text fill="#4E5D6C" font-family="Verdana" font-size="12.5" lengthAdjust="spacing" textLength="47.9126" x="758.1667" y="694.0507">Process</text></g><!--link QGen to ExtAPI--><g id="link_QGen_ExtAPI"><path d="M797.0521,944.3229 C841.2396,978.4792 911.1804,1032.5731 955.3471,1066.7189 " fill="none" id="QGen-to-ExtAPI" style="stroke:#666666;stroke-width:3.125;"/><polygon fill="#666666" points="960.2917,1070.5417,955.4232,1061.5111,956.1712,1067.356,950.3263,1068.104,960.2917,1070.5417" style="stroke:#666666;stroke-width:3.125;"/><text fill="#4E5D6C" font-family="Verdana" font-size="12.5" lengthAdjust="spacing" textLength="100.9705" x="884.8958" y="1002.3528">Fetch Questions</text></g><!--link DataAPI to DAL--><g id="link_DataAPI_DAL"><path d="M586.8854,924.6354 C602.8333,940.8125 640.6458,979.0208 672.9167,1010.5417 C693.6875,1030.8333 712.8697,1049.1592 730.9843,1066.3259 " fill="none" id="DataAPI-to-DAL" style="stroke:#666666;stroke-width:3.125;"/><polygon fill="#666666" points="735.5208,1070.625,731.5821,1061.152,731.7404,1067.0424,725.85,1067.2007,735.5208,1070.625" style="stroke:#666666;stroke-width:3.125;"/><text fill="#4E5D6C" font-family="Verdana" font-size="12.5" lengthAdjust="spacing" textLength="102.5391" x="679.1667" y="1002.3528">Data Operations</text></g><!--link DAL to DB--><g id="link_DAL_DB"><path d="M831.0208,1127.6354 C886.1771,1151.0938 956.9375,1182.8646 965.625,1194.8854 C976.1719,1209.4922 982.7266,1226.8132 986.6152,1244.6278 C987.5874,1249.0814 988.3929,1253.5659 989.0526,1258.0466 C989.2175,1259.1668 989.3733,1260.2867 989.5203,1261.4058 C989.5938,1261.9654 988.898,1256.322 988.9672,1256.8811 " fill="none" id="DAL-to-DB" style="stroke:#666666;stroke-width:3.125;"/><polygon fill="#666666" points="989.7342,1263.0839,992.7188,1253.2684,989.095,1257.9149,984.4485,1254.2911,989.7342,1263.0839" style="stroke:#666666;stroke-width:3.125;"/><text fill="#4E5D6C" font-family="Verdana" font-size="12.5" lengthAdjust="spacing" textLength="108.8806" x="959.8542" y="1178.3632">CRUD Operations</text></g><!--link UI to GMN48--><g id="link_UI_GMN48"><path d="M139.5417,148 C153.6667,110.7604 184.5521,47.8125 236.9792,28.4167 C296.8958,6.25 317.0729,22.9896 380.7292,28.4167 C659.3333,52.1771 983.2083,118.4271 1142.625,153.6458 " fill="none" id="UI-GMN48" style="stroke:#666666;stroke-width:3.125;stroke-dasharray:7.0,7.0;"/></g><!--link AuthService to GMN51--><g id="link_AuthService_GMN51"><path d="M560.7917,586.5625 C585.6354,558.9063 627.7708,518.5417 674.4792,501.7604 C867.7813,432.3125 1114.8854,549.6875 1201.5729,596.6563 " fill="none" id="AuthService-GMN51" style="stroke:#666666;stroke-width:3.125;stroke-dasharray:7.0,7.0;"/></g><!--link DAL to GMN57--><g id="link_DAL_GMN57"><path d="M789.4375,1070.8333 C815.8542,1043.1667 860.4271,1002.7708 908.8542,986.0625 C981.9375,960.8542 1008.8854,963.4271 1082.8125,986.0625 C1138.75,1003.1979 1192.8542,1046.0729 1223.7083,1073.8021 " fill="none" id="DAL-GMN57" style="stroke:#666666;stroke-width:3.125;stroke-dasharray:7.0,7.0;"/></g><!--link DB to GMN60--><g id="link_DB_GMN60"><path d="M993.8222,1359.4583 C994.026,1359.4583 994.2297,1359.4583 994.4335,1359.4583 C994.841,1359.4583 995.2486,1359.4583 995.6561,1359.4583 C998.9165,1359.4583 1002.1768,1359.4583 1005.4371,1359.4583 C1011.9576,1359.4583 1018.478,1359.4583 1024.9984,1359.4583 C1038.0391,1359.4583 1051.0794,1359.4583 1064.1198,1359.4583 C1090.2005,1359.4583 1116.2813,1359.4583 1142.3646,1359.4583 " fill="none" id="DB-GMN60" style="stroke:#666666;stroke-width:3.125;stroke-dasharray:7.0,7.0;"/></g><!--SRC=[bLNBKbD14DtVhsZZ8gk8AnTPK1K2A1Ru24ON5elnfab69pFNcRa8MloFV0S_PlSyxYj0bPSgajjzfX-dJq-U-Grk4SGlDp5Mw3KMnHZE_OsIUbsu7r9Nmeejb6PR6OtQmvy2w3aGvO-rDRLUpOqo5fuVXoVwZ5sXJVPNuGdsOwDzihuCJt5RT598xT5UYXB_DqKRR0ppsdcp1KSDeEi4drbhVlLBQfs7mejlmk5knfVynt7FXDHGaLyGG-aJHXzh-HjcLQLaARmqUfHA7yEnfMPHhs2UYNF1qnnj0AVY1cq-oC_NfKCB9vcD2n0EbYUj-zmBZrIGfZXR2Xm0mTXYPXzEOAvazj9hVEiWQXgyzgbmIX21PEtaQhwqinc5wewkkADHB2s-F8JbCff6HgcInh2RPda2azs0iU79msTZnJ2P32XeMcRNpadIIfmJZ_ofCMN_xfG619wZlP9fMknAxoq-Q6LEGxT6ARG1oBQvjsg0wiPYmmEnq8Mihr6Z5TwaSFJQWbZLC2jBT2wM7p27izCdnykrCr-Zt0XzVmWNfPzm_F88BbJHrm2RkkZUB5ElFEv1yamMkORvEYJnk8S9c1Us3xbiL90lWCXJNm6XWPtnh_A9qTdD-SVJ9a9iyA23R5RQNVHjNCrltBN6qGxjC-znM_cXUO6kLbthRR-pesjYNWkLDJMGzuwx9_4muoGnLXjn6ZH4fpAzj_7QNQ0A4BUHbIlo1XFd-tb1fn0kZlxMz95npwVfSraHnrHlTtTZm6Qpfn3kEQ5KW3Nxlf-rmmZMym9_Cgr3L98HeKAdxwlKAE7I-HmhYsiAduMINDWUcuiS8KSB-fp26w5N2jkqhNGJhettmHhUqA8luVsesMbc7w7HHP7Kl9_6GA1ZzEMcWqZw3o3QTq844NVwOslm7f1plbWUTfqqptU6gTVq7wnSRpoOo_WR5Ev99tXa2nIbttk7r_x5TvPLPMeBQjpkVksbaewAhst1ToY7AmP1-rVbwtIjlVto2T238s92HO-TxY_qgLbB8XosztTUajOgAtKfAw6mgKx0EgLOeOEVTFpHsF6Yd9kwt22ing8ix_yw4FKrh8pMztTXbQwae0bAjoLs5sUFnpee-6VCnAqZffrqNeIVOwwZ2PZF_mC0]--></g></svg>