<svg xmlns="http://www.w3.org/2000/svg" xmlns:xlink="http://www.w3.org/1999/xlink" contentStyleType="text/css" height="691px" preserveAspectRatio="xMidYMid meet" style="width: 100%; height: 100%; background: rgb(255, 255, 255); max-width: 100%; position: absolute; top: 50%; left: 50%; transform: translate(-50%, -50%);" version="1.1" viewBox="0 0 553 691" width="553px" zoomAndPan="magnify"><defs/><g><!--cluster Quiz Application--><g id="cluster_Quiz Application"><rect fill="none" height="678" rx="2.5" ry="2.5" style="stroke:#181818;stroke-width:1;" width="196.05" x="351.3" y="7"/><text fill="#000000" font-family="sans-serif" font-size="14" font-weight="bold" lengthAdjust="spacing" textLength="128.9873" x="384.8313" y="21.9951">Quiz Application</text></g><g id="elem_UC1"><ellipse cx="449.32" cy="125" fill="#F1F1F1" rx="80.4" ry="18.48" style="stroke:#181818;stroke-width:0.5;"/><text fill="#000000" font-family="sans-serif" font-size="14" lengthAdjust="spacing" textLength="119.4922" x="388.0576" y="128.336">Register Account</text></g><g id="elem_UC2"><ellipse cx="449.3223" cy="56.9983" fill="#F1F1F1" rx="41.9323" ry="14.5983" style="stroke:#181818;stroke-width:0.5;"/><text fill="#000000" font-family="sans-serif" font-size="14" lengthAdjust="spacing" textLength="42.7041" x="424.9703" y="60.7459">Log In</text></g><g id="elem_UC3"><ellipse cx="449.3158" cy="652.9972" fill="#F1F1F1" rx="66.1358" ry="15.6272" style="stroke:#181818;stroke-width:0.5;"/><text fill="#000000" font-family="sans-serif" font-size="14" lengthAdjust="spacing" textLength="82.0654" x="405.2831" y="656.7447">View Profile</text></g><g id="elem_UC4"><ellipse cx="449.3151" cy="330.001" fill="#F1F1F1" rx="66.2551" ry="15.651" style="stroke:#181818;stroke-width:0.5;"/><text fill="#000000" font-family="sans-serif" font-size="14" lengthAdjust="spacing" textLength="82.4072" x="405.1115" y="333.7486">Create Quiz</text></g><g id="elem_UC5"><ellipse cx="449.3227" cy="412.004" fill="#F1F1F1" rx="61.8827" ry="14.784" style="stroke:#181818;stroke-width:0.5;"/><text fill="#000000" font-family="sans-serif" font-size="14" lengthAdjust="spacing" textLength="69.4326" x="411.6064" y="415.7516">Take Quiz</text></g><g id="elem_UC6"><ellipse cx="449.3183" cy="496.0037" fill="#F1F1F1" rx="74.7683" ry="17.3537" style="stroke:#181818;stroke-width:0.5;"/><text fill="#000000" font-family="sans-serif" font-size="14" lengthAdjust="spacing" textLength="105.417" x="393.6098" y="499.7512">View Feedback</text></g><g id="elem_UC7"><ellipse cx="449.321" cy="584.0042" fill="#F1F1F1" rx="82.021" ry="18.8042" style="stroke:#181818;stroke-width:0.5;"/><text fill="#000000" font-family="sans-serif" font-size="14" lengthAdjust="spacing" textLength="123.3682" x="386.7062" y="587.1601">View Quiz History</text></g><g id="elem_UC8"><ellipse cx="449.3168" cy="194.0034" fill="#F1F1F1" rx="65.9668" ry="15.5934" style="stroke:#181818;stroke-width:0.5;"/><text fill="#000000" font-family="sans-serif" font-size="14" lengthAdjust="spacing" textLength="81.5801" x="405.5268" y="197.7509">Delete Quiz</text></g><g id="elem_UC9"><ellipse cx="449.3213" cy="261.9963" fill="#F1F1F1" rx="75.6313" ry="17.5263" style="stroke:#181818;stroke-width:0.5;"/><text fill="#000000" font-family="sans-serif" font-size="14" lengthAdjust="spacing" textLength="107.6318" x="392.5054" y="265.7438">Delete Attempt</text></g><!--entity U--><g id="elem_U"><ellipse cx="73.6551" cy="61.35" fill="#F1F1F1" rx="8" ry="8" style="stroke:#181818;stroke-width:0.5;"/><path d="M73.6551,69.35 L73.6551,96.35 M60.6551,77.35 L86.6551,77.35 M73.6551,96.35 L60.6551,111.35 M73.6551,96.35 L86.6551,111.35 " fill="none" style="stroke:#181818;stroke-width:0.5;"/><text fill="#000000" font-family="sans-serif" font-size="14" lengthAdjust="spacing" textLength="31.9102" x="57.7" y="125.8451">User</text></g><!--entity AU--><g id="elem_AU"><ellipse cx="73.6519" cy="382.35" fill="#F1F1F1" rx="8" ry="8" style="stroke:#181818;stroke-width:0.5;"/><path d="M73.6519,390.35 L73.6519,417.35 M60.6519,398.35 L86.6519,398.35 M73.6519,417.35 L60.6519,432.35 M73.6519,417.35 L86.6519,432.35 " fill="none" style="stroke:#181818;stroke-width:0.5;"/><text fill="#000000" font-family="sans-serif" font-size="14" lengthAdjust="spacing" textLength="135.3037" x="6" y="446.8451">Authenticated User</text></g><!--link U to UC1--><g id="link_U_UC1"><path d="M90.08,97.07 C108.91,104.13 141.88,115.41 171.3,120 C237.96,130.4 308.7327,131.0895 364.5227,129.4195 " fill="none" id="U-to-UC1" style="stroke:#181818;stroke-width:1;"/><polygon fill="#181818" points="370.52,129.24,361.4043,125.5111,365.5222,129.3896,361.6437,133.5075,370.52,129.24" style="stroke:#181818;stroke-width:1;"/><text fill="#000000" font-family="sans-serif" font-size="13" lengthAdjust="spacing" textLength="48.9785" x="229.3" y="116.0669">Sign up</text></g><!--link U to UC2--><g id="link_U_UC2"><path d="M89.76,89.63 C143.49,84.74 320.4547,68.6335 402.2547,61.1935 " fill="none" id="U-to-UC2" style="stroke:#181818;stroke-width:1;"/><polygon fill="#181818" points="408.23,60.65,398.9047,57.4817,403.2506,61.1029,399.6293,65.4488,408.23,60.65" style="stroke:#181818;stroke-width:1;"/><text fill="#000000" font-family="sans-serif" font-size="13" lengthAdjust="spacing" textLength="44.3384" x="231.3" y="64.0669">Sign in</text></g><!--link AU to UC3--><g id="link_AU_UC3"><path d="M86.2,450.57 C100.03,490.04 127.04,550.25 171.3,584 C232.98,631.03 316.7988,645.8753 377.2788,650.6753 " fill="none" id="AU-to-UC3" style="stroke:#181818;stroke-width:1;"/><polygon fill="#181818" points="383.26,651.15,374.6047,646.4505,378.2757,650.7544,373.9717,654.4254,383.26,651.15" style="stroke:#181818;stroke-width:1;"/><text fill="#000000" font-family="sans-serif" font-size="13" lengthAdjust="spacing" textLength="96.7065" x="205.3" y="580.0669">Manage Profile</text></g><!--link AU to UC4--><g id="link_AU_UC4"><path d="M141.62,394.21 C151.55,391.71 161.68,389.23 171.3,387 C249.51,368.85 334.9194,351.7805 390.6994,340.9805 " fill="none" id="AU-to-UC4" style="stroke:#181818;stroke-width:1;"/><polygon fill="#181818" points="396.59,339.84,386.9937,337.6237,391.6812,340.7904,388.5144,345.4779,396.59,339.84" style="stroke:#181818;stroke-width:1;"/><text fill="#000000" font-family="sans-serif" font-size="13" lengthAdjust="spacing" textLength="124.2363" x="191.3" y="349.3069">Define preferences</text></g><!--link AU to UC5--><g id="link_AU_UC5"><path d="M141.46,412 C211.15,412 313.49,412 381.05,412 " fill="none" id="AU-to-UC5" style="stroke:#181818;stroke-width:1;"/><polygon fill="#181818" points="387.05,412,378.05,408,382.05,412,378.05,416,387.05,412" style="stroke:#181818;stroke-width:1;"/><text fill="#000000" font-family="sans-serif" font-size="13" lengthAdjust="spacing" textLength="114.9497" x="196.3" y="408.0669">Answer questions</text></g><!--link AU to UC6--><g id="link_AU_UC6"><path d="M141.63,429.73 C151.56,432.24 161.69,434.73 171.3,437 C247.16,454.88 329.3999,472.0466 385.5199,483.4366 " fill="none" id="AU-to-UC6" style="stroke:#181818;stroke-width:1;"/><polygon fill="#181818" points="391.4,484.63,383.3754,478.9198,386.4999,483.6355,381.7842,486.76,391.4,484.63" style="stroke:#181818;stroke-width:1;"/><text fill="#000000" font-family="sans-serif" font-size="13" lengthAdjust="spacing" textLength="94.9355" x="206.3" y="433.0669">Review results</text></g><!--link AU to UC7--><g id="link_AU_UC7"><path d="M110.84,450.34 C127.89,466.6 149.3,484.61 171.3,497 C239.5,535.4 321,557.9312 379.2,570.7312 " fill="none" id="AU-to-UC7" style="stroke:#181818;stroke-width:1;"/><polygon fill="#181818" points="385.06,572.02,377.1293,566.1802,380.1767,570.946,375.4109,573.9935,385.06,572.02" style="stroke:#181818;stroke-width:1;"/><text fill="#000000" font-family="sans-serif" font-size="13" lengthAdjust="spacing" textLength="142.9175" x="182.3" y="493.0669">Browse past attempts</text></g><!--link AU to UC8--><g id="link_AU_UC8"><path d="M87.5,373.7 C101.95,336.69 129.08,281.94 171.3,252 C233.83,207.66 317.0251,196.0672 377.1651,193.5872 " fill="none" id="AU-to-UC8" style="stroke:#181818;stroke-width:1;"/><polygon fill="#181818" points="383.16,193.34,374.0028,189.7142,378.1642,193.546,374.3325,197.7074,383.16,193.34" style="stroke:#181818;stroke-width:1;"/><text fill="#000000" font-family="sans-serif" font-size="13" lengthAdjust="spacing" textLength="84.3984" x="211.3" y="193.2569">Remove quiz</text></g><!--link AU to UC9--><g id="link_AU_UC9"><path d="M110.52,373.4 C127.51,357.19 148.96,339.48 171.3,328 C237.37,294.05 315.3678,278.0508 373.4478,269.9308 " fill="none" id="AU-to-UC9" style="stroke:#181818;stroke-width:1;"/><polygon fill="#181818" points="379.39,269.1,369.9228,266.3847,374.4382,269.7923,371.0305,274.3076,379.39,269.1" style="stroke:#181818;stroke-width:1;"/><text fill="#000000" font-family="sans-serif" font-size="13" lengthAdjust="spacing" textLength="162.8936" x="172.3" y="273.0369">Remove specific attempt</text></g><!--link UC4 to UC5--><g id="link_UC4_UC5"><path d="M449.32,346.07 C449.32,360.83 449.32,376.53 449.32,390.96 " fill="none" id="UC4-to-UC5" style="stroke:#181818;stroke-width:1;stroke-dasharray:7.0,7.0;"/><polygon fill="#181818" points="449.32,396.96,453.32,387.96,449.32,391.96,445.32,387.96,449.32,396.96" style="stroke:#181818;stroke-width:1;"/><text fill="#000000" font-family="sans-serif" font-size="13" lengthAdjust="spacing" textLength="55.415" x="410.32" y="375.9969">Leads to</text></g><!--link UC5 to UC6--><g id="link_UC5_UC6"><path d="M449.32,427.25 C449.32,441.6 449.32,457.06 449.32,472.19 " fill="none" id="UC5-to-UC6" style="stroke:#181818;stroke-width:1;stroke-dasharray:7.0,7.0;"/><polygon fill="#181818" points="449.32,478.19,453.32,469.19,449.32,473.19,445.32,469.19,449.32,478.19" style="stroke:#181818;stroke-width:1;"/><text fill="#000000" font-family="sans-serif" font-size="13" lengthAdjust="spacing" textLength="63.5083" x="406.32" y="457.2869">Results in</text></g><!--link UC7 to UC6--><g id="link_UC7_UC6"><path d="M449.32,564.91 C449.32,549.64 449.32,534.41 449.32,519.56 " fill="none" id="UC7-to-UC6" style="stroke:#181818;stroke-width:1;stroke-dasharray:7.0,7.0;"/><polygon fill="#181818" points="449.32,513.56,445.32,522.56,449.32,518.56,453.32,522.56,449.32,513.56" style="stroke:#181818;stroke-width:1;"/><text fill="#000000" font-family="sans-serif" font-size="13" lengthAdjust="spacing" textLength="54.0947" x="410.82" y="543.8369">Includes</text></g><!--SRC=[RP9DRy8m38Rl-HLMxo2DRtQOr86c8J5fWtNtB7LBH4co90MnQVzzJjT2Az5R_3noNZijCFFWDLYPxpoaqgBmKYlczb8PRla131TxdkFMdmk4WBdA2sIC2wyj90ujS0T9VOxYqkzGUIcunxJ2KU1nmbZT2QAtKdv3R4mHBBejWXy6z9KE1NSaR32NpbFdM0XTAb-rI1PtNMkjSrYfcWswx4FY2LwjpcI1jJ7i6WkB5152bbeOTOLtlk_WyOqRdX3JJnghLYOtb6hOPnf7stEjJRlQ4Wli9fdT56BlyM2QPSpPBsC9z7eFOJDm3z5MvWfA4rsgWqjLgeZ5JNaOoYzSXRTeLdIbeq2Nc4c5O2ncQ549T2rZ78nOkHCzq5U9BZnXcqy2t-0nJ6_HbOLlqscWZrQVQ3B3dGV-FrRRcVrtEEWZqWsqbYkQjv0pA6GcHTCYeeLG_lubv1fvwkZtffLGeTyALwMgrX8INSbAYQ9CQTm_]--></g></svg>