<svg xmlns="http://www.w3.org/2000/svg" xmlns:xlink="http://www.w3.org/1999/xlink" contentStyleType="text/css" height="1183px" preserveAspectRatio="xMidYMid meet" style="width: 100%; height: 100%; background: rgb(255, 255, 255); max-width: 100%; position: absolute; top: 50%; left: 50%; transform: translate(-50%, -50%);" version="1.1" viewBox="0 0 591 1183" width="591px" zoomAndPan="magnify"><defs/><g><!--cluster LoginScreen--><g id="cluster_LoginScreen"><path d="M197.22,97 L396.22,97 A12.5,12.5 0 0 1 408.72,109.5 L408.72,118.2969 L184.72,118.2969 L184.72,109.5 A12.5,12.5 0 0 1 197.22,97 " fill="#F1F1F1" style="stroke:#F1F1F1;stroke-width:1;"/><rect fill="none" height="340" rx="12.5" ry="12.5" style="stroke:#181818;stroke-width:0.5;" width="224" x="184.72" y="97"/><line style="stroke:#181818;stroke-width:0.5;" x1="184.72" x2="408.72" y1="118.2969" y2="118.2969"/><text fill="#000000" font-family="sans-serif" font-size="14" lengthAdjust="spacing" textLength="86.4541" x="253.4929" y="113.9951">LoginScreen</text></g><ellipse cx="292.72" cy="150" fill="#222222" rx="10" ry="10" style="stroke:#222222;stroke-width:1;"/><g id="LoginScreen.DisplayLogin"><rect fill="#F1F1F1" height="50" rx="12.5" ry="12.5" style="stroke:#181818;stroke-width:0.5;" width="109.6191" x="237.91" y="236"/><line style="stroke:#181818;stroke-width:0.5;" x1="237.91" x2="347.5291" y1="262.2969" y2="262.2969"/><text fill="#000000" font-family="sans-serif" font-size="14" lengthAdjust="spacing" textLength="89.6191" x="247.91" y="253.9951">DisplayLogin</text></g><g id="LoginScreen.ValidateCredentials"><rect fill="#F1F1F1" height="50" rx="12.5" ry="12.5" style="stroke:#181818;stroke-width:0.5;" width="157.1631" x="214.14" y="363"/><line style="stroke:#181818;stroke-width:0.5;" x1="214.14" x2="371.3031" y1="389.2969" y2="389.2969"/><text fill="#000000" font-family="sans-serif" font-size="14" lengthAdjust="spacing" textLength="137.1631" x="224.14" y="380.9951">ValidateCredentials</text></g><path d="M19.5,508 L565.9339,508 A12.5,12.5 0 0 1 578.4339,520.5 L578.4339,534.2969 L7,534.2969 L7,520.5 A12.5,12.5 0 0 1 19.5,508 " fill="#F1F1F1" style="stroke:#F1F1F1;stroke-width:1;"/><rect fill="none" height="669.2969" rx="12.5" ry="12.5" style="stroke:#181818;stroke-width:0.5;" width="571.4339" x="7" y="508"/><line style="stroke:#181818;stroke-width:0.5;" x1="7" x2="578.4339" y1="534.2969" y2="534.2969"/><text fill="#000000" font-family="sans-serif" font-size="14" lengthAdjust="spacing" textLength="76.2002" x="254.6169" y="525.9951">Dashboard</text><ellipse cx="237.34" cy="555.2969" fill="#222222" rx="10" ry="10" style="stroke:#222222;stroke-width:1;"/><g id="Dashboard.Idle"><rect fill="#F1F1F1" height="50" rx="12.5" ry="12.5" style="stroke:#181818;stroke-width:0.5;" width="50" x="212.34" y="602.2969"/><line style="stroke:#181818;stroke-width:0.5;" x1="212.34" x2="262.34" y1="628.5938" y2="628.5938"/><text fill="#000000" font-family="sans-serif" font-size="14" lengthAdjust="spacing" textLength="25.5186" x="224.5807" y="620.292">Idle</text></g><g id="Dashboard.QuizCreation"><rect fill="#F1F1F1" height="50" rx="12.5" ry="12.5" style="stroke:#181818;stroke-width:0.5;" width="110.6719" x="19" y="705.2969"/><line style="stroke:#181818;stroke-width:0.5;" x1="19" x2="129.6719" y1="731.5938" y2="731.5938"/><text fill="#000000" font-family="sans-serif" font-size="14" lengthAdjust="spacing" textLength="90.6719" x="29" y="723.292">QuizCreation</text></g><g id="Dashboard.ViewHistory"><rect fill="#F1F1F1" height="50" rx="12.5" ry="12.5" style="stroke:#181818;stroke-width:0.5;" width="103.3369" x="253.67" y="705.2969"/><line style="stroke:#181818;stroke-width:0.5;" x1="253.67" x2="357.0069" y1="731.5938" y2="731.5938"/><text fill="#000000" font-family="sans-serif" font-size="14" lengthAdjust="spacing" textLength="83.3369" x="263.67" y="723.292">ViewHistory</text></g><g id="Dashboard.GeneratingQuiz"><rect fill="#F1F1F1" height="50" rx="12.5" ry="12.5" style="stroke:#181818;stroke-width:0.5;" width="129.5527" x="19.56" y="808.2969"/><line style="stroke:#181818;stroke-width:0.5;" x1="19.56" x2="149.1127" y1="834.5938" y2="834.5938"/><text fill="#000000" font-family="sans-serif" font-size="14" lengthAdjust="spacing" textLength="109.5527" x="29.56" y="826.292">GeneratingQuiz</text></g><g id="Dashboard.DisplayQuiz"><rect fill="#F1F1F1" height="50" rx="12.5" ry="12.5" style="stroke:#181818;stroke-width:0.5;" width="102.7354" x="38.97" y="911.2969"/><line style="stroke:#181818;stroke-width:0.5;" x1="38.97" x2="141.7054" y1="937.5938" y2="937.5938"/><text fill="#000000" font-family="sans-serif" font-size="14" lengthAdjust="spacing" textLength="82.7354" x="48.97" y="929.292">DisplayQuiz</text></g><g id="Dashboard.TakingQuiz"><rect fill="#F1F1F1" height="50" rx="12.5" ry="12.5" style="stroke:#181818;stroke-width:0.5;" width="98.0186" x="45.33" y="1014.2969"/><line style="stroke:#181818;stroke-width:0.5;" x1="45.33" x2="143.3486" y1="1040.5938" y2="1040.5938"/><text fill="#000000" font-family="sans-serif" font-size="14" lengthAdjust="spacing" textLength="78.0186" x="55.33" y="1032.292">TakingQuiz</text></g><g id="Dashboard.QuizFeedback"><rect fill="#F1F1F1" height="50" rx="12.5" ry="12.5" style="stroke:#181818;stroke-width:0.5;" width="118.5674" x="98.05" y="1117.2969"/><line style="stroke:#181818;stroke-width:0.5;" x1="98.05" x2="216.6174" y1="1143.5938" y2="1143.5938"/><text fill="#000000" font-family="sans-serif" font-size="14" lengthAdjust="spacing" textLength="98.5674" x="108.05" y="1135.292">QuizFeedback</text></g><g id="Dashboard.DisplayHistory"><rect fill="#F1F1F1" height="50" rx="12.5" ry="12.5" style="stroke:#181818;stroke-width:0.5;" width="121.4111" x="254.63" y="808.2969"/><line style="stroke:#181818;stroke-width:0.5;" x1="254.63" x2="376.0411" y1="834.5938" y2="834.5938"/><text fill="#000000" font-family="sans-serif" font-size="14" lengthAdjust="spacing" textLength="101.4111" x="264.63" y="826.292">DisplayHistory</text></g><!--link *start*Dashboard to Idle--><g id="link_*start*Dashboard_Idle"><path d="M237.34,565.7369 C237.34,574.9969 237.34,583.4869 237.34,595.9769 " fill="none" id="*start*Dashboard-to-Idle" style="stroke:#181818;stroke-width:1;"/><polygon fill="#181818" points="237.34,601.9769,241.34,592.9769,237.34,596.9769,233.34,592.9769,237.34,601.9769" style="stroke:#181818;stroke-width:1;"/></g><!--link Idle to QuizCreation--><g id="link_Idle_QuizCreation"><path d="M212.02,631.0369 C170.35,636.1169 90.23,648.5269 73.34,670.2969 C65.86,679.9269 64.6258,687.4285 66.4358,699.0385 " fill="none" id="Idle-to-QuizCreation" style="stroke:#181818;stroke-width:1;"/><polygon fill="#181818" points="67.36,704.9669,69.9259,695.4581,66.5898,700.0266,62.0214,696.6905,67.36,704.9669" style="stroke:#181818;stroke-width:1;"/><text fill="#000000" font-family="sans-serif" font-size="13" lengthAdjust="spacing" textLength="132.7168" x="74.34" y="683.3638">Select "Create Quiz"</text></g><!--link Idle to ViewHistory--><g id="link_Idle_ViewHistory"><path d="M241.45,652.6369 C244.15,663.8469 248.49,676.9369 255.34,687.2969 C259.59,693.7269 260.6811,695.6591 266.4911,700.9691 " fill="none" id="Idle-to-ViewHistory" style="stroke:#181818;stroke-width:1;"/><polygon fill="#181818" points="270.92,705.0169,266.9751,695.9926,267.2292,701.6437,261.5781,701.8978,270.92,705.0169" style="stroke:#181818;stroke-width:1;"/><text fill="#000000" font-family="sans-serif" font-size="13" lengthAdjust="spacing" textLength="137.7124" x="256.34" y="683.3638">Select "View History"</text></g><!--link QuizCreation to GeneratingQuiz--><g id="link_QuizCreation_GeneratingQuiz"><path d="M75.58,755.7269 C76.23,766.3669 77.14,778.9669 78.34,790.2969 C78.94,796.0069 78.8959,796.1951 79.7059,801.9651 " fill="none" id="QuizCreation-to-GeneratingQuiz" style="stroke:#181818;stroke-width:1;"/><polygon fill="#181818" points="80.54,807.9069,83.25,798.4382,79.8449,802.9554,75.3277,799.5503,80.54,807.9069" style="stroke:#181818;stroke-width:1;"/><text fill="#000000" font-family="sans-serif" font-size="13" lengthAdjust="spacing" textLength="127.5054" x="79.34" y="786.3638">Submit Preferences</text></g><!--link GeneratingQuiz to DisplayQuiz--><g id="link_GeneratingQuiz_DisplayQuiz"><path d="M85.79,858.7469 C86.73,874.6269 87.6046,889.2474 88.5446,905.0874 " fill="none" id="GeneratingQuiz-to-DisplayQuiz" style="stroke:#181818;stroke-width:1;"/><polygon fill="#181818" points="88.9,911.0769,92.3598,901.8557,88.6038,906.0857,84.3739,902.3296,88.9,911.0769" style="stroke:#181818;stroke-width:1;"/><text fill="#000000" font-family="sans-serif" font-size="13" lengthAdjust="spacing" textLength="102.0068" x="88.7" y="889.3638">Quiz Generated</text></g><!--link DisplayQuiz to TakingQuiz--><g id="link_DisplayQuiz_TakingQuiz"><path d="M91.3,961.7469 C91.93,977.6269 92.5116,992.2416 93.1416,1008.0816 " fill="none" id="DisplayQuiz-to-TakingQuiz" style="stroke:#181818;stroke-width:1;"/><polygon fill="#181818" points="93.38,1014.0769,97.0192,1004.925,93.1813,1009.0808,89.0255,1005.243,93.38,1014.0769" style="stroke:#181818;stroke-width:1;"/><text fill="#000000" font-family="sans-serif" font-size="13" lengthAdjust="spacing" textLength="64.7969" x="93.58" y="992.3638">Start Quiz</text></g><!--link TakingQuiz to QuizFeedback--><g id="link_TakingQuiz_QuizFeedback"><path d="M92.97,1064.6269 C93.37,1075.8469 95.36,1088.9269 101.34,1099.2969 C105.16,1105.9269 105.976,1107.8942 111.846,1113.0342 " fill="none" id="TakingQuiz-to-QuizFeedback" style="stroke:#181818;stroke-width:1;"/><polygon fill="#181818" points="116.36,1116.9869,112.2241,1108.0485,112.5983,1113.693,106.9538,1114.0672,116.36,1116.9869" style="stroke:#181818;stroke-width:1;"/><text fill="#000000" font-family="sans-serif" font-size="13" lengthAdjust="spacing" textLength="104.9014" x="102.34" y="1095.3638">Submit Answers</text></g><!--link QuizFeedback to Idle--><g id="link_QuizFeedback_Idle"><path d="M192.34,1116.9969 C198.02,1111.7169 203.35,1105.7669 207.34,1099.2969 C221.48,1076.3569 221.34,1067.2469 221.34,1040.2969 C221.34,729.2969 221.34,729.2969 221.34,729.2969 C221.34,702.8469 225.4563,678.8235 229.9863,658.4735 " fill="none" id="QuizFeedback-to-Idle" style="stroke:#181818;stroke-width:1;"/><polygon fill="#181818" points="231.29,652.6169,225.43,660.5327,230.2036,657.4974,233.2389,662.271,231.29,652.6169" style="stroke:#181818;stroke-width:1;"/><text fill="#000000" font-family="sans-serif" font-size="13" lengthAdjust="spacing" textLength="136.0239" x="222.34" y="889.3638">Return to Dashboard</text></g><!--link ViewHistory to DisplayHistory--><g id="link_ViewHistory_DisplayHistory"><path d="M307.76,755.7469 C309.33,771.6269 310.7782,786.2661 312.3482,802.1061 " fill="none" id="ViewHistory-to-DisplayHistory" style="stroke:#181818;stroke-width:1;"/><polygon fill="#181818" points="312.94,808.0769,316.0328,798.7262,312.4468,803.1013,308.0718,799.5153,312.94,808.0769" style="stroke:#181818;stroke-width:1;"/><text fill="#000000" font-family="sans-serif" font-size="13" lengthAdjust="spacing" textLength="71.1318" x="311.93" y="786.3638">Fetch Data</text></g><!--link DisplayHistory to Idle--><g id="link_DisplayHistory_Idle"><path d="M371.86,807.9369 C378.33,802.9769 384.11,797.1369 388.34,790.2969 C477.34,646.2469 410.39,691.2169 394.34,670.2969 C378.36,649.4869 308.6661,637.5492 268.4961,632.1292 " fill="none" id="DisplayHistory-to-Idle" style="stroke:#181818;stroke-width:1;"/><polygon fill="#181818" points="262.55,631.3269,270.9343,636.4944,267.5051,631.9954,272.004,628.5662,262.55,631.3269" style="stroke:#181818;stroke-width:1;"/><text fill="#000000" font-family="sans-serif" font-size="13" lengthAdjust="spacing" textLength="136.0239" x="432.41" y="734.8638">Return to Dashboard</text></g><ellipse cx="436.72" cy="16" fill="#222222" rx="10" ry="10" style="stroke:#222222;stroke-width:1;"/><g id="Logout"><rect fill="#F1F1F1" height="50" rx="12.5" ry="12.5" style="stroke:#181818;stroke-width:0.5;" width="68.1797" x="439.63" y="125"/><line style="stroke:#181818;stroke-width:0.5;" x1="439.63" x2="507.8097" y1="151.2969" y2="151.2969"/><text fill="#000000" font-family="sans-serif" font-size="14" lengthAdjust="spacing" textLength="48.1797" x="449.63" y="142.9951">Logout</text></g><ellipse cx="473.72" cy="261" fill="none" rx="11" ry="11" style="stroke:#222222;stroke-width:1;"/><ellipse cx="473.72" cy="261" fill="#222222" rx="6" ry="6" style="stroke:#222222;stroke-width:1;"/><!--link *start* to LoginScreen--><g id="link_*start*_LoginScreen"><path d="M428.58,22.16 C419.1,28.7 403.95,40.96 397.72,56 C395.7725,60.7025 394.965,68.7231 394.8544,78.1439 C394.7991,82.8543 394.918,87.9147 395.1557,93.0854 C395.2151,94.3781 394.9444,89.6872 395.0178,90.9899 " fill="none" id="*start*-to-LoginScreen" style="stroke:#181818;stroke-width:1;"/><polygon fill="#181818" points="395.3554,96.9804,398.8426,87.7696,395.0741,91.9883,390.8553,88.2198,395.3554,96.9804" style="stroke:#181818;stroke-width:1;"/><text fill="#000000" font-family="sans-serif" font-size="13" lengthAdjust="spacing" textLength="31.7573" x="398.72" y="69.0669">Start</text></g><!--link *start*LoginScreen to DisplayLogin--><g id="link_*start*LoginScreen_DisplayLogin"><path d="M292.72,160.3 C292.72,176.87 292.72,206.04 292.72,229.85 " fill="none" id="*start*LoginScreen-to-DisplayLogin" style="stroke:#181818;stroke-width:1;"/><polygon fill="#181818" points="292.72,235.85,296.72,226.85,292.72,230.85,288.72,226.85,292.72,235.85" style="stroke:#181818;stroke-width:1;"/></g><!--link DisplayLogin to ValidateCredentials--><g id="link_DisplayLogin_ValidateCredentials"><path d="M261.55,286.42 C253.17,294.8 245.19,304.9 240.72,316 C233.86,333.01 240.5054,345.5424 254.1254,358.4524 " fill="none" id="DisplayLogin-to-ValidateCredentials" style="stroke:#181818;stroke-width:1;"/><polygon fill="#181818" points="258.48,362.58,254.6998,353.4855,254.8511,359.1403,249.1963,359.2917,258.48,362.58" style="stroke:#181818;stroke-width:1;"/><text fill="#000000" font-family="sans-serif" font-size="13" lengthAdjust="spacing" textLength="46.1157" x="241.72" y="329.0669">Submit</text></g><!--link ValidateCredentials to DisplayLogin--><g id="link_ValidateCredentials_DisplayLogin"><path d="M292.72,362.67 C292.72,340.66 292.72,314.43 292.72,292.4 " fill="none" id="ValidateCredentials-to-DisplayLogin" style="stroke:#181818;stroke-width:1;"/><polygon fill="#181818" points="292.72,286.4,288.72,295.4,292.72,291.4,296.72,295.4,292.72,286.4" style="stroke:#181818;stroke-width:1;"/><text fill="#000000" font-family="sans-serif" font-size="13" lengthAdjust="spacing" textLength="43.2085" x="293.72" y="329.0669">Invalid</text></g><!--link ValidateCredentials to Dashboard--><g id="link_ValidateCredentials_Dashboard"><path d="M292.72,413.34 C292.72,434.64 292.72,462.28 292.72,501.56 " fill="none" id="ValidateCredentials-to-Dashboard" style="stroke:#181818;stroke-width:1;"/><polygon fill="#181818" points="292.72,507.56,296.72,498.56,292.72,502.56,288.72,498.56,292.72,507.56" style="stroke:#181818;stroke-width:1;"/><text fill="#000000" font-family="sans-serif" font-size="13" lengthAdjust="spacing" textLength="32.335" x="293.72" y="474.0669">Valid</text></g><!--link *start* to Logout--><g id="link_*start*_Logout"><path d="M439.26,26.08 C444.89,46.17 456.9602,89.2228 465.2902,118.9328 " fill="none" id="*start*-to-Logout" style="stroke:#181818;stroke-width:1;"/><polygon fill="#181818" points="466.91,124.71,468.3318,114.9643,465.5602,119.8957,460.6288,117.124,466.91,124.71" style="stroke:#181818;stroke-width:1;"/><text fill="#000000" font-family="sans-serif" font-size="13" lengthAdjust="spacing" textLength="74.7056" x="452.9" y="69.0669">User Action</text></g><!--link Logout to *end*--><g id="link_Logout_*end*"><path d="M473.72,175.46 C473.72,198.81 473.72,226.86 473.72,243.73 " fill="none" id="Logout-to-*end*" style="stroke:#181818;stroke-width:1;"/><polygon fill="#181818" points="473.72,249.73,477.72,240.73,473.72,244.73,469.72,240.73,473.72,249.73" style="stroke:#181818;stroke-width:1;"/></g><!--SRC=[VPBDJiCm48JlUGghHwI-00Ua2bIenA6qq4l4mR67rcgmAtj3LH3lZhtDZrEXvf9uvvkrFPlovbrCftVYsMsDNIiFM74hrYGz5KKWIHX9FuM8JzcQ7amurFB400jvWOcDh8sEJUuzD2mPMOVKlga-3R7ZF-2oTNGix5S2hrjas5LEUXrvPehVxWg3DBx0GjVWGlhWoajZlcDZISPn4AYXI4ou15OdOyF6uFXa0Zb_olXK5MtvR1WrJiP7MFYujDiazQc8fSS7FAn2OEC5buNJ-lZLKj3v77h3gznd-wJXielPJEi2c0Ewace_76fcmn4-z3VfYIx5YAv0ZRU2t13tULvPGjdfXz3c8BMB9fBvuNFBbHtYZClX7tODHUujm8kPIb4NRJ7faVi3]--></g></svg>